%TF.GenerationSoftware,KiCad,Pcbnew,(6.0.11)*%
%TF.CreationDate,2024-03-19T13:30:50-03:00*%
%TF.ProjectId,qds-cv-bypass-adapter,7164732d-6376-42d6-9279-706173732d61,rev?*%
%TF.SameCoordinates,Original*%
%TF.FileFunction,OtherDrawing,Comment*%
%FSLAX46Y46*%
G04 Gerber Fmt 4.6, Leading zero omitted, Abs format (unit mm)*
G04 Created by KiCad (PCBNEW (6.0.11)) date 2024-03-19 13:30:50*
%MOMM*%
%LPD*%
G01*
G04 APERTURE LIST*
%ADD10C,0.150000*%
%ADD11C,0.200000*%
G04 APERTURE END LIST*
D10*
X198681620Y-88900000D02*
G75*
G03*
X198681620Y-88900000I-1831620J0D01*
G01*
X136577884Y-88900000D02*
G75*
G03*
X136577884Y-88900000I-1703884J0D01*
G01*
X201676000Y-84328000D02*
X212090000Y-84328000D01*
X212090000Y-84328000D02*
X212090000Y-92964000D01*
X212090000Y-92964000D02*
X201676000Y-92964000D01*
X201676000Y-92964000D02*
X201676000Y-84328000D01*
X139446000Y-83820000D02*
X170434000Y-83820000D01*
X170434000Y-83820000D02*
X170434000Y-95250000D01*
X170434000Y-95250000D02*
X139446000Y-95250000D01*
X139446000Y-95250000D02*
X139446000Y-83820000D01*
D11*
X211889750Y-110206000D02*
X211889750Y-110206000D01*
X71889750Y-97143822D02*
G75*
G03*
X78889750Y-97143822I3500000J-6062178D01*
G01*
X56889750Y-122006000D02*
X56889750Y-122006000D01*
X60889750Y-126006000D02*
X217889750Y-126006000D01*
X56889750Y-78506000D02*
X56889750Y-122006000D01*
X125889750Y-97143800D02*
X132889750Y-97143800D01*
X145589750Y-105156000D02*
G75*
G03*
X145589750Y-105156000I-1950000J0D01*
G01*
X71889750Y-97143822D02*
G75*
G03*
X78889750Y-97143822I3500000J-6062178D01*
G01*
X107889750Y-97143822D02*
G75*
G03*
X114889750Y-97143822I3500000J-6062178D01*
G01*
X151189750Y-105156000D02*
X151189750Y-105156000D01*
X107889750Y-97143800D02*
X114889750Y-97143800D01*
X78889750Y-97143800D02*
X78889750Y-97143800D01*
X145589750Y-105156000D02*
G75*
G03*
X145589750Y-105156000I-1950000J0D01*
G01*
X178739750Y-106606000D02*
G75*
G03*
X178739750Y-106606000I-2000000J0D01*
G01*
X168049750Y-105156000D02*
G75*
G03*
X168049750Y-105156000I-1950000J0D01*
G01*
X89889750Y-97143800D02*
X96889750Y-97143800D01*
X221889750Y-122006000D02*
X221889750Y-122006000D01*
X156809750Y-105156000D02*
G75*
G03*
X156809750Y-105156000I-1950000J0D01*
G01*
X56889750Y-122006000D02*
X56889750Y-122006000D01*
X151189750Y-105156000D02*
G75*
G03*
X151189750Y-105156000I-1950000J0D01*
G01*
X201889750Y-98206000D02*
X201889750Y-110206000D01*
X188889750Y-106606000D02*
G75*
G03*
X188889750Y-106606000I-2000000J0D01*
G01*
X107889750Y-97143800D02*
X107889750Y-97143800D01*
X219139750Y-122006000D02*
G75*
G03*
X219139750Y-122006000I-2000000J0D01*
G01*
X201889750Y-110206000D02*
X211889750Y-110206000D01*
X60889750Y-74506000D02*
X60889750Y-74506000D01*
X168049750Y-105156000D02*
G75*
G03*
X168049750Y-105156000I-1950000J0D01*
G01*
X168049750Y-105156000D02*
G75*
G03*
X168049750Y-105156000I-1950000J0D01*
G01*
X56889750Y-122006000D02*
G75*
G03*
X60889750Y-126006000I4000000J0D01*
G01*
X201889750Y-110206000D02*
X211889750Y-110206000D01*
X60889750Y-74506000D02*
G75*
G03*
X56889750Y-78506000I0J-4000000D01*
G01*
X178739750Y-106606000D02*
X178739750Y-106606000D01*
X219139750Y-122006000D02*
G75*
G03*
X219139750Y-122006000I-2000000J0D01*
G01*
X201889750Y-110206000D02*
X211889750Y-110206000D01*
X188889750Y-106606000D02*
G75*
G03*
X188889750Y-106606000I-2000000J0D01*
G01*
X56889750Y-78506000D02*
X56889750Y-122006000D01*
X162429750Y-105156000D02*
G75*
G03*
X162429750Y-105156000I-1950000J0D01*
G01*
X60889750Y-74506000D02*
G75*
G03*
X56889750Y-78506000I0J-4000000D01*
G01*
X60889750Y-74506000D02*
X60889750Y-74506000D01*
X63639750Y-78506000D02*
X63639750Y-78506000D01*
X151189750Y-105156000D02*
G75*
G03*
X151189750Y-105156000I-1950000J0D01*
G01*
X114889750Y-97143800D02*
X114889750Y-97143800D01*
X168049750Y-105156000D02*
X168049750Y-105156000D01*
X219139750Y-78506000D02*
X219139750Y-78506000D01*
X217889750Y-74506000D02*
X217889750Y-74506000D01*
X107889750Y-97143800D02*
X114889750Y-97143800D01*
X219139750Y-122006000D02*
X219139750Y-122006000D01*
X221889700Y-78506000D02*
G75*
G03*
X217889750Y-74506000I-4000000J0D01*
G01*
X156809750Y-105156000D02*
X156809750Y-105156000D01*
X89889750Y-97143822D02*
G75*
G03*
X96889750Y-97143822I3500000J-6062178D01*
G01*
X63639750Y-78506000D02*
G75*
G03*
X63639750Y-78506000I-2000000J0D01*
G01*
X221889700Y-78506000D02*
G75*
G03*
X217889750Y-74506000I-4000000J0D01*
G01*
X145589750Y-105156000D02*
X145589750Y-105156000D01*
X114889750Y-97143800D02*
X114889750Y-97143800D01*
X107889750Y-97143822D02*
G75*
G03*
X114889750Y-97143822I3500000J-6062178D01*
G01*
X211889750Y-110206000D02*
X211889750Y-98206000D01*
X221889750Y-122006000D02*
X221889750Y-78506000D01*
X107889750Y-97143800D02*
X114889750Y-97143800D01*
X217889750Y-74506000D02*
X60889750Y-74506000D01*
X217889750Y-126006000D02*
X217889750Y-126006000D01*
X89889750Y-97143800D02*
X96889750Y-97143800D01*
X60889750Y-74506000D02*
G75*
G03*
X56889750Y-78506000I0J-4000000D01*
G01*
X89889750Y-97143800D02*
X89889750Y-97143800D01*
X71889750Y-97143822D02*
G75*
G03*
X78889750Y-97143822I3500000J-6062178D01*
G01*
X217889750Y-126006050D02*
G75*
G03*
X221889750Y-122006000I-50J4000050D01*
G01*
X71889750Y-97143800D02*
X71889750Y-97143800D01*
X107889750Y-97143822D02*
G75*
G03*
X114889750Y-97143822I3500000J-6062178D01*
G01*
X89889750Y-97143822D02*
G75*
G03*
X96889750Y-97143822I3500000J-6062178D01*
G01*
X201889750Y-110206000D02*
X201889750Y-110206000D01*
X221889750Y-78506000D02*
X221889750Y-78506000D01*
X56889750Y-78506000D02*
X56889750Y-122006000D01*
X178739750Y-106606000D02*
G75*
G03*
X178739750Y-106606000I-2000000J0D01*
G01*
X63639750Y-122006000D02*
X63639750Y-122006000D01*
X211889750Y-110206000D02*
X211889750Y-98206000D01*
X198949750Y-105156000D02*
G75*
G03*
X198949750Y-105156000I-1950000J0D01*
G01*
X107889750Y-97143800D02*
X114889750Y-97143800D01*
X217889750Y-74506000D02*
X60889750Y-74506000D01*
X162429750Y-105156000D02*
G75*
G03*
X162429750Y-105156000I-1950000J0D01*
G01*
X217889750Y-126006050D02*
G75*
G03*
X221889750Y-122006000I-50J4000050D01*
G01*
X221889750Y-78506000D02*
X221889750Y-78506000D01*
X125889750Y-97143800D02*
X132889750Y-97143800D01*
X71889750Y-97143800D02*
X78889750Y-97143800D01*
X156809750Y-105156000D02*
G75*
G03*
X156809750Y-105156000I-1950000J0D01*
G01*
X211889750Y-98206000D02*
X211889750Y-98206000D01*
X178739750Y-106606000D02*
G75*
G03*
X178739750Y-106606000I-2000000J0D01*
G01*
X219139750Y-78506000D02*
G75*
G03*
X219139750Y-78506000I-2000000J0D01*
G01*
X63639750Y-122006000D02*
G75*
G03*
X63639750Y-122006000I-2000000J0D01*
G01*
X63639750Y-78506000D02*
G75*
G03*
X63639750Y-78506000I-2000000J0D01*
G01*
X162429750Y-105156000D02*
X162429750Y-105156000D01*
X211889750Y-98206000D02*
X201889750Y-98206000D01*
X211889750Y-110206000D02*
X211889750Y-98206000D01*
X132889750Y-97143800D02*
X132889750Y-97143800D01*
X132889750Y-97143800D02*
X132889750Y-97143800D01*
X168049750Y-105156000D02*
G75*
G03*
X168049750Y-105156000I-1950000J0D01*
G01*
X56889750Y-122006000D02*
G75*
G03*
X60889750Y-126006000I4000000J0D01*
G01*
X63639750Y-122006000D02*
X63639750Y-122006000D01*
X217889750Y-74506000D02*
X60889750Y-74506000D01*
X63639750Y-78506000D02*
G75*
G03*
X63639750Y-78506000I-2000000J0D01*
G01*
X221889750Y-122006000D02*
X221889750Y-78506000D01*
X60889750Y-126006000D02*
X217889750Y-126006000D01*
X211889750Y-98206000D02*
X201889750Y-98206000D01*
X201889750Y-98206000D02*
X201889750Y-98206000D01*
X219139750Y-78506000D02*
G75*
G03*
X219139750Y-78506000I-2000000J0D01*
G01*
X125889750Y-97143822D02*
G75*
G03*
X132889750Y-97143822I3500000J-6062178D01*
G01*
X219139750Y-122006000D02*
G75*
G03*
X219139750Y-122006000I-2000000J0D01*
G01*
X71889750Y-97143800D02*
X71889750Y-97143800D01*
X89889750Y-97143800D02*
X96889750Y-97143800D01*
X217889750Y-126006000D02*
X217889750Y-126006000D01*
X56889750Y-122006000D02*
G75*
G03*
X60889750Y-126006000I4000000J0D01*
G01*
X198949750Y-105156000D02*
G75*
G03*
X198949750Y-105156000I-1950000J0D01*
G01*
X198949750Y-105156000D02*
G75*
G03*
X198949750Y-105156000I-1950000J0D01*
G01*
X56889750Y-78506000D02*
X56889750Y-78506000D01*
X168049750Y-105156000D02*
X168049750Y-105156000D01*
X217889750Y-126006050D02*
G75*
G03*
X221889750Y-122006000I-50J4000050D01*
G01*
X188889750Y-106606000D02*
X188889750Y-106606000D01*
X107889750Y-97143822D02*
G75*
G03*
X114889750Y-97143822I3500000J-6062178D01*
G01*
X71889750Y-97143800D02*
X78889750Y-97143800D01*
X201889750Y-98206000D02*
X201889750Y-110206000D01*
X219139750Y-78506000D02*
G75*
G03*
X219139750Y-78506000I-2000000J0D01*
G01*
X60889750Y-126006000D02*
X217889750Y-126006000D01*
X188889750Y-106606000D02*
X188889750Y-106606000D01*
X211889750Y-98206000D02*
X201889750Y-98206000D01*
X211889750Y-110206000D02*
X211889750Y-110206000D01*
X89889750Y-97143800D02*
X96889750Y-97143800D01*
X198949750Y-105156000D02*
X198949750Y-105156000D01*
X217889750Y-126006050D02*
G75*
G03*
X221889750Y-122006000I-50J4000050D01*
G01*
X125889750Y-97143800D02*
X125889750Y-97143800D01*
X145589750Y-105156000D02*
X145589750Y-105156000D01*
X89889750Y-97143822D02*
G75*
G03*
X96889750Y-97143822I3500000J-6062178D01*
G01*
X125889750Y-97143800D02*
X125889750Y-97143800D01*
X63639750Y-122006000D02*
G75*
G03*
X63639750Y-122006000I-2000000J0D01*
G01*
X211889750Y-98206000D02*
X201889750Y-98206000D01*
X56889750Y-78506000D02*
X56889750Y-78506000D01*
X221889700Y-78506000D02*
G75*
G03*
X217889750Y-74506000I-4000000J0D01*
G01*
X125889750Y-97143800D02*
X132889750Y-97143800D01*
X63639750Y-122006000D02*
G75*
G03*
X63639750Y-122006000I-2000000J0D01*
G01*
X198949750Y-105156000D02*
G75*
G03*
X198949750Y-105156000I-1950000J0D01*
G01*
X211889750Y-110206000D02*
X211889750Y-98206000D01*
X201889750Y-98206000D02*
X201889750Y-110206000D01*
X125889750Y-97143822D02*
G75*
G03*
X132889750Y-97143822I3500000J-6062178D01*
G01*
X71889750Y-97143800D02*
X78889750Y-97143800D01*
X188889750Y-106606000D02*
G75*
G03*
X188889750Y-106606000I-2000000J0D01*
G01*
X156809750Y-105156000D02*
X156809750Y-105156000D01*
X56889750Y-122006000D02*
G75*
G03*
X60889750Y-126006000I4000000J0D01*
G01*
X151189750Y-105156000D02*
G75*
G03*
X151189750Y-105156000I-1950000J0D01*
G01*
X71889750Y-97143822D02*
G75*
G03*
X78889750Y-97143822I3500000J-6062178D01*
G01*
X151189750Y-105156000D02*
G75*
G03*
X151189750Y-105156000I-1950000J0D01*
G01*
X219139750Y-122006000D02*
X219139750Y-122006000D01*
X63639750Y-78506000D02*
X63639750Y-78506000D01*
X198949750Y-105156000D02*
X198949750Y-105156000D01*
X201889750Y-98206000D02*
X201889750Y-98206000D01*
X96889750Y-97143800D02*
X96889750Y-97143800D01*
X217889750Y-74506000D02*
X60889750Y-74506000D01*
X221889750Y-122006000D02*
X221889750Y-78506000D01*
X125889750Y-97143822D02*
G75*
G03*
X132889750Y-97143822I3500000J-6062178D01*
G01*
X145589750Y-105156000D02*
G75*
G03*
X145589750Y-105156000I-1950000J0D01*
G01*
X217889750Y-74506000D02*
X217889750Y-74506000D01*
X71889750Y-97143800D02*
X78889750Y-97143800D01*
X162429750Y-105156000D02*
G75*
G03*
X162429750Y-105156000I-1950000J0D01*
G01*
X56889750Y-78506000D02*
X56889750Y-122006000D01*
X211889750Y-98206000D02*
X211889750Y-98206000D01*
X125889750Y-97143822D02*
G75*
G03*
X132889750Y-97143822I3500000J-6062178D01*
G01*
X156809750Y-105156000D02*
G75*
G03*
X156809750Y-105156000I-1950000J0D01*
G01*
X60889750Y-126006000D02*
X60889750Y-126006000D01*
X201889750Y-110206000D02*
X201889750Y-110206000D01*
X219139750Y-78506000D02*
G75*
G03*
X219139750Y-78506000I-2000000J0D01*
G01*
X107889750Y-97143800D02*
X107889750Y-97143800D01*
X145589750Y-105156000D02*
G75*
G03*
X145589750Y-105156000I-1950000J0D01*
G01*
X151189750Y-105156000D02*
X151189750Y-105156000D01*
X178739750Y-106606000D02*
G75*
G03*
X178739750Y-106606000I-2000000J0D01*
G01*
X60889750Y-74506000D02*
G75*
G03*
X56889750Y-78506000I0J-4000000D01*
G01*
X162429750Y-105156000D02*
X162429750Y-105156000D01*
X219139750Y-78506000D02*
X219139750Y-78506000D01*
X201889750Y-110206000D02*
X211889750Y-110206000D01*
X60889750Y-126006000D02*
X217889750Y-126006000D01*
X156809750Y-105156000D02*
G75*
G03*
X156809750Y-105156000I-1950000J0D01*
G01*
X201889750Y-98206000D02*
X201889750Y-110206000D01*
X178739750Y-106606000D02*
X178739750Y-106606000D01*
X221889750Y-122006000D02*
X221889750Y-78506000D01*
X89889750Y-97143800D02*
X89889750Y-97143800D01*
X219139750Y-122006000D02*
G75*
G03*
X219139750Y-122006000I-2000000J0D01*
G01*
X162429750Y-105156000D02*
G75*
G03*
X162429750Y-105156000I-1950000J0D01*
G01*
X63639750Y-122006000D02*
G75*
G03*
X63639750Y-122006000I-2000000J0D01*
G01*
X221889700Y-78506000D02*
G75*
G03*
X217889750Y-74506000I-4000000J0D01*
G01*
X96889750Y-97143800D02*
X96889750Y-97143800D01*
X78889750Y-97143800D02*
X78889750Y-97143800D01*
X221889750Y-122006000D02*
X221889750Y-122006000D01*
X89889750Y-97143822D02*
G75*
G03*
X96889750Y-97143822I3500000J-6062178D01*
G01*
X60889750Y-126006000D02*
X60889750Y-126006000D01*
X188889750Y-106606000D02*
G75*
G03*
X188889750Y-106606000I-2000000J0D01*
G01*
X125889750Y-97143800D02*
X132889750Y-97143800D01*
X63639750Y-78506000D02*
G75*
G03*
X63639750Y-78506000I-2000000J0D01*
G01*
M02*
