%TF.GenerationSoftware,KiCad,Pcbnew,(6.0.11)*%
%TF.CreationDate,2024-03-18T15:41:05-03:00*%
%TF.ProjectId,qds-cv-bypass-adapter,7164732d-6376-42d6-9279-706173732d61,rev?*%
%TF.SameCoordinates,Original*%
%TF.FileFunction,Copper,L1,Top*%
%TF.FilePolarity,Positive*%
%FSLAX46Y46*%
G04 Gerber Fmt 4.6, Leading zero omitted, Abs format (unit mm)*
G04 Created by KiCad (PCBNEW (6.0.11)) date 2024-03-18 15:41:05*
%MOMM*%
%LPD*%
G01*
G04 APERTURE LIST*
%TA.AperFunction,ComponentPad*%
%ADD10O,1.800000X3.600000*%
%TD*%
%TA.AperFunction,SMDPad,CuDef*%
%ADD11R,1.600000X3.400000*%
%TD*%
%TA.AperFunction,ComponentPad*%
%ADD12C,2.000000*%
%TD*%
%TA.AperFunction,ViaPad*%
%ADD13C,1.200000*%
%TD*%
%TA.AperFunction,Conductor*%
%ADD14C,0.400000*%
%TD*%
%TA.AperFunction,Conductor*%
%ADD15C,0.800000*%
%TD*%
%TA.AperFunction,Conductor*%
%ADD16C,1.000000*%
%TD*%
G04 APERTURE END LIST*
D10*
%TO.P,J1,1,Pin_1*%
%TO.N,Net-(SW1-Pad4)*%
X204978000Y-89034500D03*
%TO.P,J1,2,Pin_2*%
%TO.N,Net-(SW1-Pad1)*%
X208788000Y-89034500D03*
%TD*%
D11*
%TO.P,SW4,1*%
%TO.N,Net-(SW1-Pad1)*%
X165100000Y-93540500D03*
%TO.P,SW4,2*%
%TO.N,Net-(J2-Pad2)*%
X167640000Y-93540500D03*
%TO.P,SW4,3*%
%TO.N,Net-(J2-Pad1)*%
X167640000Y-84940500D03*
%TO.P,SW4,4*%
%TO.N,Net-(SW1-Pad4)*%
X165100000Y-84940500D03*
%TD*%
%TO.P,SW3,1*%
%TO.N,Net-(SW1-Pad1)*%
X157480000Y-93540500D03*
%TO.P,SW3,2*%
%TO.N,Net-(J2-Pad4)*%
X160020000Y-93540500D03*
%TO.P,SW3,3*%
%TO.N,Net-(J2-Pad3)*%
X160020000Y-84940500D03*
%TO.P,SW3,4*%
%TO.N,Net-(SW1-Pad4)*%
X157480000Y-84940500D03*
%TD*%
%TO.P,SW1,1*%
%TO.N,Net-(SW1-Pad1)*%
X142240000Y-93540500D03*
%TO.P,SW1,2*%
%TO.N,Net-(J2-Pad8)*%
X144780000Y-93540500D03*
%TO.P,SW1,3*%
%TO.N,Net-(J2-Pad7)*%
X144780000Y-84940500D03*
%TO.P,SW1,4*%
%TO.N,Net-(SW1-Pad4)*%
X142240000Y-84940500D03*
%TD*%
%TO.P,SW2,1*%
%TO.N,Net-(SW1-Pad1)*%
X149860000Y-93540500D03*
%TO.P,SW2,2*%
%TO.N,Net-(J2-Pad6)*%
X152400000Y-93540500D03*
%TO.P,SW2,3*%
%TO.N,Net-(J2-Pad5)*%
X152400000Y-84940500D03*
%TO.P,SW2,4*%
%TO.N,Net-(SW1-Pad4)*%
X149860000Y-84940500D03*
%TD*%
D12*
%TO.P,J2,1,Pin_1*%
%TO.N,Net-(J2-Pad1)*%
X172466000Y-84836000D03*
%TO.P,J2,2,Pin_2*%
%TO.N,Net-(J2-Pad2)*%
X172466000Y-87376000D03*
%TO.P,J2,3,Pin_3*%
%TO.N,Net-(J2-Pad3)*%
X175006000Y-84836000D03*
%TO.P,J2,4,Pin_4*%
%TO.N,Net-(J2-Pad4)*%
X175006000Y-87376000D03*
%TO.P,J2,5,Pin_5*%
%TO.N,Net-(J2-Pad5)*%
X177546000Y-84836000D03*
%TO.P,J2,6,Pin_6*%
%TO.N,Net-(J2-Pad6)*%
X177546000Y-87376000D03*
%TO.P,J2,7,Pin_7*%
%TO.N,Net-(J2-Pad7)*%
X180086000Y-84836000D03*
%TO.P,J2,8,Pin_8*%
%TO.N,Net-(J2-Pad8)*%
X180086000Y-87376000D03*
%TO.P,J2,9,Pin_9*%
%TO.N,unconnected-(J2-Pad9)*%
X182626000Y-84836000D03*
%TO.P,J2,10,Pin_10*%
%TO.N,unconnected-(J2-Pad10)*%
X182626000Y-87376000D03*
%TD*%
D13*
%TO.N,Net-(SW1-Pad1)*%
X165100000Y-90678000D03*
%TO.N,Net-(SW1-Pad4)*%
X165100000Y-88392000D03*
%TD*%
D14*
%TO.N,Net-(J2-Pad5)*%
X152400000Y-84940500D02*
X152400000Y-84074000D01*
X154991500Y-81482500D02*
X174192500Y-81482500D01*
X174192500Y-81482500D02*
X177546000Y-84836000D01*
X177546000Y-84836000D02*
X177546000Y-84922500D01*
X152400000Y-84074000D02*
X154991500Y-81482500D01*
%TO.N,Net-(J2-Pad7)*%
X144780000Y-84074000D02*
X144780000Y-84940500D01*
X180086000Y-84922500D02*
X175746000Y-80582500D01*
X148271500Y-80582500D02*
X144780000Y-84074000D01*
X175746000Y-80582500D02*
X148271500Y-80582500D01*
D15*
%TO.N,Net-(SW1-Pad1)*%
X149860000Y-90678000D02*
X143764000Y-90678000D01*
X143764000Y-90678000D02*
X142240000Y-92202000D01*
X165100000Y-90678000D02*
X157480000Y-90678000D01*
D16*
X165100000Y-90678000D02*
X165100000Y-93540500D01*
D15*
X149860000Y-90678000D02*
X149860000Y-93540500D01*
X157480000Y-90678000D02*
X157480000Y-93540500D01*
X157480000Y-90678000D02*
X149860000Y-90678000D01*
X142240000Y-92202000D02*
X142240000Y-93540500D01*
%TO.N,Net-(SW1-Pad4)*%
X157226000Y-88392000D02*
X157480000Y-88138000D01*
X165100000Y-88392000D02*
X157226000Y-88392000D01*
X149860000Y-88392000D02*
X143931500Y-88392000D01*
X143931500Y-88392000D02*
X142240000Y-86700500D01*
X165100000Y-88392000D02*
X165100000Y-84940500D01*
X142240000Y-86700500D02*
X142240000Y-84940500D01*
X157226000Y-88392000D02*
X149860000Y-88392000D01*
X149860000Y-88392000D02*
X149860000Y-84940500D01*
X157480000Y-88138000D02*
X157480000Y-84940500D01*
D14*
%TO.N,Net-(J2-Pad1)*%
X167744500Y-84836000D02*
X167640000Y-84940500D01*
X172466000Y-84836000D02*
X167744500Y-84836000D01*
%TO.N,Net-(J2-Pad2)*%
X172466000Y-87630000D02*
X167640000Y-92456000D01*
X167640000Y-92456000D02*
X167640000Y-93540500D01*
X172466000Y-86868000D02*
X172466000Y-87630000D01*
%TO.N,Net-(J2-Pad3)*%
X175006000Y-84922500D02*
X172466000Y-82382500D01*
X160020000Y-84074000D02*
X160020000Y-84940500D01*
X161711500Y-82382500D02*
X160020000Y-84074000D01*
X172466000Y-82382500D02*
X161711500Y-82382500D01*
%TO.N,Net-(J2-Pad4)*%
X160020000Y-93540500D02*
X160020000Y-94380250D01*
X168779750Y-95940500D02*
X175006000Y-89714250D01*
X175006000Y-89714250D02*
X175006000Y-87462500D01*
X161580250Y-95940500D02*
X168779750Y-95940500D01*
X160020000Y-94380250D02*
X161580250Y-95940500D01*
%TO.N,Net-(J2-Pad6)*%
X169313500Y-96878500D02*
X154790500Y-96878500D01*
X152400000Y-94488000D02*
X152400000Y-93540500D01*
X177546000Y-87462500D02*
X177546000Y-88646000D01*
X177546000Y-88646000D02*
X169313500Y-96878500D01*
X154790500Y-96878500D02*
X152400000Y-94488000D01*
%TO.N,Net-(J2-Pad8)*%
X148217125Y-97778500D02*
X169770000Y-97778500D01*
X144780000Y-94341375D02*
X148217125Y-97778500D01*
X169770000Y-97778500D02*
X180086000Y-87462500D01*
X144780000Y-93540500D02*
X144780000Y-94341375D01*
%TD*%
%TA.AperFunction,NonConductor*%
G36*
X175468461Y-81311002D02*
G01*
X175489435Y-81327905D01*
X177306402Y-83144872D01*
X177340428Y-83207184D01*
X177335363Y-83277999D01*
X177292816Y-83334835D01*
X177246722Y-83356485D01*
X177171582Y-83374525D01*
X177100674Y-83370979D01*
X177053072Y-83341102D01*
X175218065Y-81506095D01*
X175184039Y-81443783D01*
X175189104Y-81372968D01*
X175231651Y-81316132D01*
X175298171Y-81291321D01*
X175307160Y-81291000D01*
X175400340Y-81291000D01*
X175468461Y-81311002D01*
G37*
%TD.AperFunction*%
%TA.AperFunction,NonConductor*%
G36*
X173914961Y-82211002D02*
G01*
X173935935Y-82227905D01*
X174836663Y-83128633D01*
X174870689Y-83190945D01*
X174865624Y-83261760D01*
X174823077Y-83318596D01*
X174769259Y-83341338D01*
X174769289Y-83341465D01*
X174768525Y-83341648D01*
X174768523Y-83341649D01*
X174764474Y-83342621D01*
X174561827Y-83391272D01*
X174490919Y-83387725D01*
X174443318Y-83357848D01*
X173491565Y-82406095D01*
X173457539Y-82343783D01*
X173462604Y-82272968D01*
X173505151Y-82216132D01*
X173571671Y-82191321D01*
X173580660Y-82191000D01*
X173846840Y-82191000D01*
X173914961Y-82211002D01*
G37*
%TD.AperFunction*%
%TA.AperFunction,NonConductor*%
G36*
X172188461Y-83111002D02*
G01*
X172209435Y-83127905D01*
X172226402Y-83144872D01*
X172260428Y-83207184D01*
X172255363Y-83277999D01*
X172212816Y-83334835D01*
X172166721Y-83356486D01*
X172106354Y-83370979D01*
X171998406Y-83396895D01*
X171993835Y-83398788D01*
X171993833Y-83398789D01*
X171783611Y-83485865D01*
X171783607Y-83485867D01*
X171779037Y-83487760D01*
X171774817Y-83490346D01*
X171580798Y-83609241D01*
X171580792Y-83609245D01*
X171576584Y-83611824D01*
X171396031Y-83766031D01*
X171241824Y-83946584D01*
X171239242Y-83950797D01*
X171239235Y-83950807D01*
X171167826Y-84067335D01*
X171115179Y-84114966D01*
X171060394Y-84127500D01*
X169074500Y-84127500D01*
X169006379Y-84107498D01*
X168959886Y-84053842D01*
X168948500Y-84001500D01*
X168948500Y-83217000D01*
X168968502Y-83148879D01*
X169022158Y-83102386D01*
X169074500Y-83091000D01*
X172120340Y-83091000D01*
X172188461Y-83111002D01*
G37*
%TD.AperFunction*%
%TA.AperFunction,NonConductor*%
G36*
X173831811Y-85783944D02*
G01*
X173932818Y-85902208D01*
X173932823Y-85902213D01*
X173936031Y-85905969D01*
X173939787Y-85909177D01*
X173939792Y-85909182D01*
X174058056Y-86010189D01*
X174096866Y-86069639D01*
X174097372Y-86140634D01*
X174058056Y-86201811D01*
X173939792Y-86302818D01*
X173939787Y-86302823D01*
X173936031Y-86306031D01*
X173932823Y-86309787D01*
X173932818Y-86309792D01*
X173831811Y-86428056D01*
X173772361Y-86466866D01*
X173701366Y-86467372D01*
X173640189Y-86428056D01*
X173539182Y-86309792D01*
X173539177Y-86309787D01*
X173535969Y-86306031D01*
X173532213Y-86302823D01*
X173532208Y-86302818D01*
X173413944Y-86201811D01*
X173375134Y-86142361D01*
X173374628Y-86071366D01*
X173413944Y-86010189D01*
X173532208Y-85909182D01*
X173532213Y-85909177D01*
X173535969Y-85905969D01*
X173539177Y-85902213D01*
X173539182Y-85902208D01*
X173640189Y-85783944D01*
X173699639Y-85745134D01*
X173770634Y-85744628D01*
X173831811Y-85783944D01*
G37*
%TD.AperFunction*%
%TA.AperFunction,NonConductor*%
G36*
X181451811Y-85783944D02*
G01*
X181552818Y-85902208D01*
X181552823Y-85902213D01*
X181556031Y-85905969D01*
X181559787Y-85909177D01*
X181559792Y-85909182D01*
X181678056Y-86010189D01*
X181716866Y-86069639D01*
X181717372Y-86140634D01*
X181678056Y-86201811D01*
X181559792Y-86302818D01*
X181559787Y-86302823D01*
X181556031Y-86306031D01*
X181552823Y-86309787D01*
X181552818Y-86309792D01*
X181451811Y-86428056D01*
X181392361Y-86466866D01*
X181321366Y-86467372D01*
X181260189Y-86428056D01*
X181159182Y-86309792D01*
X181159177Y-86309787D01*
X181155969Y-86306031D01*
X181152213Y-86302823D01*
X181152208Y-86302818D01*
X181033944Y-86201811D01*
X180995134Y-86142361D01*
X180994628Y-86071366D01*
X181033944Y-86010189D01*
X181152208Y-85909182D01*
X181152213Y-85909177D01*
X181155969Y-85905969D01*
X181159177Y-85902213D01*
X181159182Y-85902208D01*
X181260189Y-85783944D01*
X181319639Y-85745134D01*
X181390634Y-85744628D01*
X181451811Y-85783944D01*
G37*
%TD.AperFunction*%
%TA.AperFunction,NonConductor*%
G36*
X178911811Y-85783944D02*
G01*
X179012818Y-85902208D01*
X179012823Y-85902213D01*
X179016031Y-85905969D01*
X179019787Y-85909177D01*
X179019792Y-85909182D01*
X179138056Y-86010189D01*
X179176866Y-86069639D01*
X179177372Y-86140634D01*
X179138056Y-86201811D01*
X179019792Y-86302818D01*
X179019787Y-86302823D01*
X179016031Y-86306031D01*
X179012823Y-86309787D01*
X179012818Y-86309792D01*
X178911811Y-86428056D01*
X178852361Y-86466866D01*
X178781366Y-86467372D01*
X178720189Y-86428056D01*
X178619182Y-86309792D01*
X178619177Y-86309787D01*
X178615969Y-86306031D01*
X178612213Y-86302823D01*
X178612208Y-86302818D01*
X178493944Y-86201811D01*
X178455134Y-86142361D01*
X178454628Y-86071366D01*
X178493944Y-86010189D01*
X178612208Y-85909182D01*
X178612213Y-85909177D01*
X178615969Y-85905969D01*
X178619177Y-85902213D01*
X178619182Y-85902208D01*
X178720189Y-85783944D01*
X178779639Y-85745134D01*
X178850634Y-85744628D01*
X178911811Y-85783944D01*
G37*
%TD.AperFunction*%
%TA.AperFunction,NonConductor*%
G36*
X176371811Y-85783944D02*
G01*
X176472818Y-85902208D01*
X176472823Y-85902213D01*
X176476031Y-85905969D01*
X176479787Y-85909177D01*
X176479792Y-85909182D01*
X176598056Y-86010189D01*
X176636866Y-86069639D01*
X176637372Y-86140634D01*
X176598056Y-86201811D01*
X176479792Y-86302818D01*
X176479787Y-86302823D01*
X176476031Y-86306031D01*
X176472823Y-86309787D01*
X176472818Y-86309792D01*
X176371811Y-86428056D01*
X176312361Y-86466866D01*
X176241366Y-86467372D01*
X176180189Y-86428056D01*
X176079182Y-86309792D01*
X176079177Y-86309787D01*
X176075969Y-86306031D01*
X176072213Y-86302823D01*
X176072208Y-86302818D01*
X175953944Y-86201811D01*
X175915134Y-86142361D01*
X175914628Y-86071366D01*
X175953944Y-86010189D01*
X176072208Y-85909182D01*
X176072213Y-85909177D01*
X176075969Y-85905969D01*
X176079177Y-85902213D01*
X176079182Y-85902208D01*
X176180189Y-85783944D01*
X176239639Y-85745134D01*
X176310634Y-85744628D01*
X176371811Y-85783944D01*
G37*
%TD.AperFunction*%
%TA.AperFunction,NonConductor*%
G36*
X163733621Y-83111002D02*
G01*
X163780114Y-83164658D01*
X163791500Y-83217000D01*
X163791500Y-86688634D01*
X163798255Y-86750816D01*
X163849385Y-86887205D01*
X163936739Y-87003761D01*
X164053295Y-87091115D01*
X164061703Y-87094267D01*
X164109730Y-87112272D01*
X164166495Y-87154914D01*
X164191194Y-87221476D01*
X164191500Y-87230254D01*
X164191500Y-87357500D01*
X164171498Y-87425621D01*
X164117842Y-87472114D01*
X164065500Y-87483500D01*
X158514500Y-87483500D01*
X158446379Y-87463498D01*
X158399886Y-87409842D01*
X158388500Y-87357500D01*
X158388500Y-87230254D01*
X158408502Y-87162133D01*
X158462158Y-87115640D01*
X158470270Y-87112272D01*
X158518297Y-87094267D01*
X158526705Y-87091115D01*
X158643261Y-87003761D01*
X158649174Y-86995872D01*
X158649878Y-86995345D01*
X158654992Y-86990231D01*
X158655730Y-86990969D01*
X158706031Y-86953357D01*
X158776849Y-86948330D01*
X158839143Y-86982388D01*
X158850823Y-86995867D01*
X158856739Y-87003761D01*
X158973295Y-87091115D01*
X159109684Y-87142245D01*
X159171866Y-87149000D01*
X160868134Y-87149000D01*
X160930316Y-87142245D01*
X161066705Y-87091115D01*
X161183261Y-87003761D01*
X161270615Y-86887205D01*
X161321745Y-86750816D01*
X161328500Y-86688634D01*
X161328500Y-83819660D01*
X161348502Y-83751540D01*
X161365405Y-83730565D01*
X161968067Y-83127904D01*
X162030379Y-83093879D01*
X162057162Y-83091000D01*
X163665500Y-83091000D01*
X163733621Y-83111002D01*
G37*
%TD.AperFunction*%
%TA.AperFunction,NonConductor*%
G36*
X160664961Y-82211002D02*
G01*
X160711454Y-82264658D01*
X160721558Y-82334932D01*
X160692064Y-82399512D01*
X160685935Y-82406095D01*
X160396935Y-82695095D01*
X160334623Y-82729121D01*
X160307840Y-82732000D01*
X159171866Y-82732000D01*
X159109684Y-82738755D01*
X158973295Y-82789885D01*
X158856739Y-82877239D01*
X158850826Y-82885128D01*
X158850122Y-82885655D01*
X158845008Y-82890769D01*
X158844270Y-82890031D01*
X158793969Y-82927643D01*
X158723151Y-82932670D01*
X158660857Y-82898612D01*
X158649177Y-82885133D01*
X158643261Y-82877239D01*
X158526705Y-82789885D01*
X158390316Y-82738755D01*
X158328134Y-82732000D01*
X156631866Y-82732000D01*
X156569684Y-82738755D01*
X156433295Y-82789885D01*
X156316739Y-82877239D01*
X156229385Y-82993795D01*
X156178255Y-83130184D01*
X156171500Y-83192366D01*
X156171500Y-86688634D01*
X156178255Y-86750816D01*
X156229385Y-86887205D01*
X156316739Y-87003761D01*
X156433295Y-87091115D01*
X156441703Y-87094267D01*
X156489730Y-87112272D01*
X156546495Y-87154914D01*
X156571194Y-87221476D01*
X156571500Y-87230254D01*
X156571500Y-87357500D01*
X156551498Y-87425621D01*
X156497842Y-87472114D01*
X156445500Y-87483500D01*
X150894500Y-87483500D01*
X150826379Y-87463498D01*
X150779886Y-87409842D01*
X150768500Y-87357500D01*
X150768500Y-87230254D01*
X150788502Y-87162133D01*
X150842158Y-87115640D01*
X150850270Y-87112272D01*
X150898297Y-87094267D01*
X150906705Y-87091115D01*
X151023261Y-87003761D01*
X151029174Y-86995872D01*
X151029878Y-86995345D01*
X151034992Y-86990231D01*
X151035730Y-86990969D01*
X151086031Y-86953357D01*
X151156849Y-86948330D01*
X151219143Y-86982388D01*
X151230823Y-86995867D01*
X151236739Y-87003761D01*
X151353295Y-87091115D01*
X151489684Y-87142245D01*
X151551866Y-87149000D01*
X153248134Y-87149000D01*
X153310316Y-87142245D01*
X153446705Y-87091115D01*
X153563261Y-87003761D01*
X153650615Y-86887205D01*
X153701745Y-86750816D01*
X153708500Y-86688634D01*
X153708500Y-83819660D01*
X153728502Y-83751539D01*
X153745405Y-83730565D01*
X155248066Y-82227905D01*
X155310378Y-82193879D01*
X155337161Y-82191000D01*
X160596840Y-82191000D01*
X160664961Y-82211002D01*
G37*
%TD.AperFunction*%
%TA.AperFunction,NonConductor*%
G36*
X153944961Y-81311002D02*
G01*
X153991454Y-81364658D01*
X154001558Y-81434932D01*
X153972064Y-81499512D01*
X153965935Y-81506095D01*
X152776935Y-82695095D01*
X152714623Y-82729121D01*
X152687840Y-82732000D01*
X151551866Y-82732000D01*
X151489684Y-82738755D01*
X151353295Y-82789885D01*
X151236739Y-82877239D01*
X151230826Y-82885128D01*
X151230122Y-82885655D01*
X151225008Y-82890769D01*
X151224270Y-82890031D01*
X151173969Y-82927643D01*
X151103151Y-82932670D01*
X151040857Y-82898612D01*
X151029177Y-82885133D01*
X151023261Y-82877239D01*
X150906705Y-82789885D01*
X150770316Y-82738755D01*
X150708134Y-82732000D01*
X149011866Y-82732000D01*
X148949684Y-82738755D01*
X148813295Y-82789885D01*
X148696739Y-82877239D01*
X148609385Y-82993795D01*
X148558255Y-83130184D01*
X148551500Y-83192366D01*
X148551500Y-86688634D01*
X148558255Y-86750816D01*
X148609385Y-86887205D01*
X148696739Y-87003761D01*
X148813295Y-87091115D01*
X148821703Y-87094267D01*
X148869730Y-87112272D01*
X148926495Y-87154914D01*
X148951194Y-87221476D01*
X148951500Y-87230254D01*
X148951500Y-87357500D01*
X148931498Y-87425621D01*
X148877842Y-87472114D01*
X148825500Y-87483500D01*
X144360003Y-87483500D01*
X144291882Y-87463498D01*
X144270908Y-87446595D01*
X144188408Y-87364095D01*
X144154382Y-87301783D01*
X144159447Y-87230968D01*
X144201994Y-87174132D01*
X144268514Y-87149321D01*
X144277503Y-87149000D01*
X145628134Y-87149000D01*
X145690316Y-87142245D01*
X145826705Y-87091115D01*
X145943261Y-87003761D01*
X146030615Y-86887205D01*
X146081745Y-86750816D01*
X146088500Y-86688634D01*
X146088500Y-83819660D01*
X146108502Y-83751539D01*
X146125405Y-83730565D01*
X148528065Y-81327905D01*
X148590377Y-81293879D01*
X148617160Y-81291000D01*
X153876840Y-81291000D01*
X153944961Y-81311002D01*
G37*
%TD.AperFunction*%
%TA.AperFunction,NonConductor*%
G36*
X176371811Y-88323944D02*
G01*
X176472818Y-88442208D01*
X176472823Y-88442213D01*
X176476031Y-88445969D01*
X176479787Y-88449177D01*
X176516946Y-88480914D01*
X176555755Y-88540365D01*
X176556261Y-88611360D01*
X176524210Y-88665820D01*
X175929595Y-89260435D01*
X175867283Y-89294461D01*
X175796468Y-89289396D01*
X175739632Y-89246849D01*
X175714821Y-89180329D01*
X175714500Y-89171340D01*
X175714500Y-88781606D01*
X175734502Y-88713485D01*
X175774665Y-88674174D01*
X175891193Y-88602765D01*
X175891203Y-88602758D01*
X175895416Y-88600176D01*
X176075969Y-88445969D01*
X176079177Y-88442213D01*
X176079182Y-88442208D01*
X176180189Y-88323944D01*
X176239639Y-88285134D01*
X176310634Y-88284628D01*
X176371811Y-88323944D01*
G37*
%TD.AperFunction*%
%TA.AperFunction,NonConductor*%
G36*
X171128515Y-85564502D02*
G01*
X171167826Y-85604665D01*
X171239235Y-85721193D01*
X171239242Y-85721202D01*
X171241824Y-85725416D01*
X171396031Y-85905969D01*
X171399787Y-85909177D01*
X171399792Y-85909182D01*
X171518056Y-86010189D01*
X171556866Y-86069639D01*
X171557372Y-86140634D01*
X171518056Y-86201811D01*
X171399792Y-86302818D01*
X171399787Y-86302823D01*
X171396031Y-86306031D01*
X171241824Y-86486584D01*
X171239245Y-86490792D01*
X171239241Y-86490798D01*
X171190153Y-86570903D01*
X171117760Y-86689037D01*
X171115867Y-86693607D01*
X171115865Y-86693611D01*
X171032700Y-86894391D01*
X171026895Y-86908406D01*
X171020967Y-86933098D01*
X170977143Y-87115640D01*
X170971465Y-87139289D01*
X170952835Y-87376000D01*
X170971465Y-87612711D01*
X170972619Y-87617518D01*
X170972620Y-87617524D01*
X170990533Y-87692136D01*
X171026895Y-87843594D01*
X171028789Y-87848167D01*
X171028791Y-87848172D01*
X171060150Y-87923881D01*
X171067739Y-87994470D01*
X171032836Y-88061193D01*
X167798935Y-91295095D01*
X167736623Y-91329121D01*
X167709840Y-91332000D01*
X166791866Y-91332000D01*
X166729684Y-91338755D01*
X166593295Y-91389885D01*
X166476739Y-91477239D01*
X166470826Y-91485128D01*
X166470122Y-91485655D01*
X166465008Y-91490769D01*
X166464270Y-91490031D01*
X166413969Y-91527643D01*
X166343151Y-91532670D01*
X166280857Y-91498612D01*
X166269177Y-91485133D01*
X166263261Y-91477239D01*
X166158935Y-91399051D01*
X166116420Y-91342192D01*
X166108500Y-91298225D01*
X166108500Y-91175381D01*
X166117911Y-91131107D01*
X166117004Y-91130799D01*
X166180634Y-90943352D01*
X166180635Y-90943347D01*
X166182490Y-90937883D01*
X166211723Y-90736263D01*
X166213249Y-90678000D01*
X166194608Y-90475126D01*
X166139307Y-90279047D01*
X166130824Y-90261844D01*
X166051756Y-90101510D01*
X166049201Y-90096329D01*
X166027697Y-90067531D01*
X165930758Y-89937715D01*
X165930758Y-89937714D01*
X165927305Y-89933091D01*
X165808708Y-89823461D01*
X165781943Y-89798719D01*
X165781940Y-89798717D01*
X165777703Y-89794800D01*
X165709528Y-89751785D01*
X165610288Y-89689169D01*
X165610283Y-89689167D01*
X165605404Y-89686088D01*
X165523201Y-89653292D01*
X165467343Y-89609473D01*
X165444042Y-89542408D01*
X165460698Y-89473393D01*
X165512022Y-89424339D01*
X165529387Y-89416951D01*
X165552799Y-89409004D01*
X165730551Y-89309458D01*
X165887186Y-89179186D01*
X166017458Y-89022551D01*
X166103238Y-88869380D01*
X166114180Y-88849842D01*
X166114181Y-88849840D01*
X166117004Y-88844799D01*
X166118860Y-88839332D01*
X166118862Y-88839327D01*
X166180634Y-88657352D01*
X166180635Y-88657347D01*
X166182490Y-88651883D01*
X166211723Y-88450263D01*
X166213249Y-88392000D01*
X166194608Y-88189126D01*
X166193040Y-88183566D01*
X166140875Y-87998606D01*
X166140874Y-87998604D01*
X166139307Y-87993047D01*
X166105199Y-87923881D01*
X166051756Y-87815510D01*
X166049201Y-87810329D01*
X166033542Y-87789359D01*
X166008810Y-87722809D01*
X166008500Y-87713970D01*
X166008500Y-87230254D01*
X166028502Y-87162133D01*
X166082158Y-87115640D01*
X166090270Y-87112272D01*
X166138297Y-87094267D01*
X166146705Y-87091115D01*
X166263261Y-87003761D01*
X166269174Y-86995872D01*
X166269878Y-86995345D01*
X166274992Y-86990231D01*
X166275730Y-86990969D01*
X166326031Y-86953357D01*
X166396849Y-86948330D01*
X166459143Y-86982388D01*
X166470823Y-86995867D01*
X166476739Y-87003761D01*
X166593295Y-87091115D01*
X166729684Y-87142245D01*
X166791866Y-87149000D01*
X168488134Y-87149000D01*
X168550316Y-87142245D01*
X168686705Y-87091115D01*
X168803261Y-87003761D01*
X168890615Y-86887205D01*
X168941745Y-86750816D01*
X168948500Y-86688634D01*
X168948500Y-85670500D01*
X168968502Y-85602379D01*
X169022158Y-85555886D01*
X169074500Y-85544500D01*
X171060394Y-85544500D01*
X171128515Y-85564502D01*
G37*
%TD.AperFunction*%
%TA.AperFunction,NonConductor*%
G36*
X173831811Y-88323944D02*
G01*
X173932818Y-88442208D01*
X173932823Y-88442213D01*
X173936031Y-88445969D01*
X174116584Y-88600176D01*
X174120797Y-88602758D01*
X174120807Y-88602765D01*
X174237335Y-88674174D01*
X174284966Y-88726821D01*
X174297500Y-88781606D01*
X174297500Y-89368590D01*
X174277498Y-89436711D01*
X174260595Y-89457685D01*
X169163595Y-94554685D01*
X169101283Y-94588711D01*
X169030468Y-94583646D01*
X168973632Y-94541099D01*
X168948821Y-94474579D01*
X168948500Y-94465590D01*
X168948500Y-92201660D01*
X168968502Y-92133539D01*
X168985405Y-92112565D01*
X172186496Y-88911474D01*
X172248808Y-88877448D01*
X172285476Y-88874957D01*
X172466000Y-88889165D01*
X172702711Y-88870535D01*
X172707518Y-88869381D01*
X172707524Y-88869380D01*
X172853391Y-88834360D01*
X172933594Y-88815105D01*
X172938167Y-88813211D01*
X173148389Y-88726135D01*
X173148393Y-88726133D01*
X173152963Y-88724240D01*
X173157183Y-88721654D01*
X173351202Y-88602759D01*
X173351208Y-88602755D01*
X173355416Y-88600176D01*
X173535969Y-88445969D01*
X173539177Y-88442213D01*
X173539182Y-88442208D01*
X173640189Y-88323944D01*
X173699639Y-88285134D01*
X173770634Y-88284628D01*
X173831811Y-88323944D01*
G37*
%TD.AperFunction*%
%TA.AperFunction,NonConductor*%
G36*
X163742082Y-91606502D02*
G01*
X163788575Y-91660158D01*
X163798536Y-91729435D01*
X163798255Y-91730184D01*
X163791500Y-91792366D01*
X163791500Y-95106000D01*
X163771498Y-95174121D01*
X163717842Y-95220614D01*
X163665500Y-95232000D01*
X161925910Y-95232000D01*
X161857789Y-95211998D01*
X161836815Y-95195095D01*
X161365405Y-94723685D01*
X161331379Y-94661373D01*
X161328500Y-94634590D01*
X161328500Y-91792366D01*
X161321745Y-91730184D01*
X161324067Y-91729932D01*
X161327160Y-91670742D01*
X161368607Y-91613100D01*
X161434639Y-91587017D01*
X161446039Y-91586500D01*
X163673961Y-91586500D01*
X163742082Y-91606502D01*
G37*
%TD.AperFunction*%
%TA.AperFunction,NonConductor*%
G36*
X156122082Y-91606502D02*
G01*
X156168575Y-91660158D01*
X156178536Y-91729435D01*
X156178255Y-91730184D01*
X156171500Y-91792366D01*
X156171500Y-95288634D01*
X156178255Y-95350816D01*
X156229385Y-95487205D01*
X156316739Y-95603761D01*
X156433295Y-95691115D01*
X156569684Y-95742245D01*
X156631866Y-95749000D01*
X158328134Y-95749000D01*
X158390316Y-95742245D01*
X158526705Y-95691115D01*
X158643261Y-95603761D01*
X158649174Y-95595872D01*
X158649878Y-95595345D01*
X158654992Y-95590231D01*
X158655730Y-95590969D01*
X158706031Y-95553357D01*
X158776849Y-95548330D01*
X158839143Y-95582388D01*
X158850823Y-95595867D01*
X158856739Y-95603761D01*
X158973295Y-95691115D01*
X159109684Y-95742245D01*
X159171866Y-95749000D01*
X160334590Y-95749000D01*
X160402711Y-95769002D01*
X160423685Y-95785905D01*
X160592685Y-95954905D01*
X160626711Y-96017217D01*
X160621646Y-96088032D01*
X160579099Y-96144868D01*
X160512579Y-96169679D01*
X160503590Y-96170000D01*
X155136161Y-96170000D01*
X155068040Y-96149998D01*
X155047066Y-96133095D01*
X153745405Y-94831435D01*
X153711380Y-94769123D01*
X153708500Y-94742340D01*
X153708500Y-91792366D01*
X153701745Y-91730184D01*
X153704067Y-91729932D01*
X153707160Y-91670742D01*
X153748607Y-91613100D01*
X153814639Y-91587017D01*
X153826039Y-91586500D01*
X156053961Y-91586500D01*
X156122082Y-91606502D01*
G37*
%TD.AperFunction*%
%TA.AperFunction,NonConductor*%
G36*
X148502082Y-91606502D02*
G01*
X148548575Y-91660158D01*
X148558536Y-91729435D01*
X148558255Y-91730184D01*
X148551500Y-91792366D01*
X148551500Y-95288634D01*
X148558255Y-95350816D01*
X148609385Y-95487205D01*
X148696739Y-95603761D01*
X148813295Y-95691115D01*
X148949684Y-95742245D01*
X149011866Y-95749000D01*
X150708134Y-95749000D01*
X150770316Y-95742245D01*
X150906705Y-95691115D01*
X151023261Y-95603761D01*
X151029174Y-95595872D01*
X151029878Y-95595345D01*
X151034992Y-95590231D01*
X151035730Y-95590969D01*
X151086031Y-95553357D01*
X151156849Y-95548330D01*
X151219143Y-95582388D01*
X151230823Y-95595867D01*
X151236739Y-95603761D01*
X151353295Y-95691115D01*
X151489684Y-95742245D01*
X151551866Y-95749000D01*
X152606840Y-95749000D01*
X152674961Y-95769002D01*
X152695935Y-95785905D01*
X153764935Y-96854905D01*
X153798961Y-96917217D01*
X153793896Y-96988032D01*
X153751349Y-97044868D01*
X153684829Y-97069679D01*
X153675840Y-97070000D01*
X148562785Y-97070000D01*
X148494664Y-97049998D01*
X148473690Y-97033095D01*
X146125405Y-94684810D01*
X146091379Y-94622498D01*
X146088500Y-94595715D01*
X146088500Y-91792366D01*
X146081745Y-91730184D01*
X146084067Y-91729932D01*
X146087160Y-91670742D01*
X146128607Y-91613100D01*
X146194639Y-91587017D01*
X146206039Y-91586500D01*
X148433961Y-91586500D01*
X148502082Y-91606502D01*
G37*
%TD.AperFunction*%
%TA.AperFunction,NonConductor*%
G36*
X208504018Y-80012000D02*
G01*
X208518852Y-80014310D01*
X208518855Y-80014310D01*
X208527724Y-80015691D01*
X208536627Y-80014527D01*
X208536629Y-80014527D01*
X208547078Y-80013161D01*
X208569594Y-80012249D01*
X208876322Y-80027318D01*
X208888618Y-80028528D01*
X209221520Y-80077910D01*
X209233642Y-80080320D01*
X209282138Y-80092468D01*
X209560101Y-80162095D01*
X209571933Y-80165684D01*
X209888803Y-80279061D01*
X209900227Y-80283793D01*
X210204456Y-80427683D01*
X210215361Y-80433512D01*
X210504024Y-80606530D01*
X210514305Y-80613400D01*
X210784613Y-80813874D01*
X210794171Y-80821718D01*
X211043531Y-81047725D01*
X211052275Y-81056469D01*
X211278282Y-81305829D01*
X211286126Y-81315387D01*
X211486600Y-81585695D01*
X211493470Y-81595976D01*
X211666488Y-81884639D01*
X211672317Y-81895544D01*
X211816207Y-82199773D01*
X211820939Y-82211197D01*
X211934316Y-82528067D01*
X211937905Y-82539899D01*
X212019679Y-82866355D01*
X212022090Y-82878480D01*
X212060593Y-83138040D01*
X212071471Y-83211377D01*
X212072682Y-83223676D01*
X212085564Y-83485865D01*
X212087390Y-83523034D01*
X212086042Y-83548598D01*
X212084309Y-83559724D01*
X212085474Y-83568630D01*
X212088436Y-83591283D01*
X212089500Y-83607621D01*
X212089500Y-93599500D01*
X212069498Y-93667621D01*
X212015842Y-93714114D01*
X211963500Y-93725500D01*
X202763073Y-93725500D01*
X202750943Y-93724145D01*
X202750904Y-93724627D01*
X202741957Y-93723907D01*
X202733201Y-93721926D01*
X202681168Y-93725154D01*
X202679492Y-93725258D01*
X202671690Y-93725500D01*
X202655487Y-93725500D01*
X202646571Y-93726777D01*
X202645122Y-93726984D01*
X202635072Y-93728013D01*
X202596782Y-93730389D01*
X202596781Y-93730389D01*
X202587823Y-93730945D01*
X202579382Y-93733993D01*
X202576468Y-93734596D01*
X202559534Y-93738818D01*
X202556695Y-93739648D01*
X202547813Y-93740920D01*
X202504700Y-93760523D01*
X202495349Y-93764329D01*
X202459262Y-93777356D01*
X202459260Y-93777357D01*
X202450820Y-93780404D01*
X202443576Y-93785696D01*
X202440982Y-93787075D01*
X202425843Y-93795922D01*
X202423383Y-93797495D01*
X202415218Y-93801208D01*
X202408424Y-93807062D01*
X202408421Y-93807064D01*
X202393338Y-93820061D01*
X202379343Y-93832119D01*
X202371428Y-93838403D01*
X202364382Y-93843550D01*
X202364375Y-93843556D01*
X202360448Y-93846425D01*
X202349473Y-93857400D01*
X202342626Y-93863758D01*
X202304873Y-93896287D01*
X202299989Y-93903822D01*
X202294542Y-93910066D01*
X202284942Y-93921931D01*
X197692278Y-98514595D01*
X197629966Y-98548621D01*
X197603183Y-98551500D01*
X170301995Y-98551500D01*
X170233874Y-98531498D01*
X170187381Y-98477842D01*
X170177277Y-98407568D01*
X170206771Y-98342988D01*
X170230628Y-98321660D01*
X170235721Y-98318160D01*
X170235725Y-98318157D01*
X170241981Y-98313857D01*
X170283436Y-98267329D01*
X170288416Y-98262054D01*
X179662826Y-88887645D01*
X179725138Y-88853619D01*
X179781335Y-88854221D01*
X179844476Y-88869380D01*
X179844482Y-88869381D01*
X179849289Y-88870535D01*
X180086000Y-88889165D01*
X180322711Y-88870535D01*
X180327518Y-88869381D01*
X180327524Y-88869380D01*
X180473391Y-88834360D01*
X180553594Y-88815105D01*
X180558167Y-88813211D01*
X180768389Y-88726135D01*
X180768393Y-88726133D01*
X180772963Y-88724240D01*
X180777183Y-88721654D01*
X180971202Y-88602759D01*
X180971208Y-88602755D01*
X180975416Y-88600176D01*
X181155969Y-88445969D01*
X181159177Y-88442213D01*
X181159182Y-88442208D01*
X181260189Y-88323944D01*
X181319639Y-88285134D01*
X181390634Y-88284628D01*
X181451811Y-88323944D01*
X181552818Y-88442208D01*
X181552823Y-88442213D01*
X181556031Y-88445969D01*
X181736584Y-88600176D01*
X181740792Y-88602755D01*
X181740798Y-88602759D01*
X181934817Y-88721654D01*
X181939037Y-88724240D01*
X181943607Y-88726133D01*
X181943611Y-88726135D01*
X182153833Y-88813211D01*
X182158406Y-88815105D01*
X182238609Y-88834360D01*
X182384476Y-88869380D01*
X182384482Y-88869381D01*
X182389289Y-88870535D01*
X182626000Y-88889165D01*
X182862711Y-88870535D01*
X182867518Y-88869381D01*
X182867524Y-88869380D01*
X183013391Y-88834360D01*
X183093594Y-88815105D01*
X183098167Y-88813211D01*
X183308389Y-88726135D01*
X183308393Y-88726133D01*
X183312963Y-88724240D01*
X183317183Y-88721654D01*
X183511202Y-88602759D01*
X183511208Y-88602755D01*
X183515416Y-88600176D01*
X183581489Y-88543744D01*
X193596163Y-88543744D01*
X193598577Y-88646169D01*
X193603856Y-88870176D01*
X193604592Y-88901419D01*
X193652220Y-89256009D01*
X193653056Y-89259373D01*
X193653056Y-89259375D01*
X193729764Y-89568183D01*
X193738470Y-89603232D01*
X193739670Y-89606485D01*
X193739671Y-89606488D01*
X193801985Y-89775397D01*
X193862302Y-89938892D01*
X193928620Y-90071615D01*
X194020674Y-90255844D01*
X194020678Y-90255851D01*
X194022220Y-90258937D01*
X194216291Y-90559501D01*
X194309756Y-90674305D01*
X194439988Y-90834271D01*
X194439995Y-90834278D01*
X194442173Y-90836954D01*
X194444637Y-90839380D01*
X194444641Y-90839384D01*
X194544700Y-90937883D01*
X194697137Y-91087944D01*
X194699856Y-91090088D01*
X194699860Y-91090091D01*
X194770760Y-91145984D01*
X194978103Y-91309440D01*
X194981049Y-91311277D01*
X194981050Y-91311278D01*
X195021428Y-91336460D01*
X195281678Y-91498766D01*
X195284804Y-91500267D01*
X195284813Y-91500272D01*
X195454241Y-91581630D01*
X195604196Y-91653637D01*
X195607465Y-91654785D01*
X195938501Y-91771037D01*
X195938509Y-91771039D01*
X195941760Y-91772181D01*
X195945122Y-91772960D01*
X195945128Y-91772962D01*
X196014188Y-91788969D01*
X196290295Y-91852967D01*
X196293712Y-91853371D01*
X196293721Y-91853373D01*
X196642885Y-91894699D01*
X196645589Y-91895019D01*
X196648304Y-91895104D01*
X196648313Y-91895105D01*
X196673269Y-91895889D01*
X196692714Y-91896500D01*
X196939817Y-91896500D01*
X196941536Y-91896405D01*
X196941551Y-91896405D01*
X197083689Y-91888582D01*
X197207234Y-91881783D01*
X197210646Y-91881215D01*
X197210656Y-91881214D01*
X197453955Y-91840717D01*
X197560153Y-91823041D01*
X197904495Y-91725927D01*
X198236100Y-91591613D01*
X198408175Y-91498766D01*
X198547914Y-91423367D01*
X198547918Y-91423364D01*
X198550964Y-91421721D01*
X198601588Y-91386733D01*
X198842443Y-91220269D01*
X198842449Y-91220265D01*
X198845284Y-91218305D01*
X199104673Y-90993218D01*
X199112887Y-90986090D01*
X199112888Y-90986089D01*
X199115504Y-90983819D01*
X199152912Y-90943352D01*
X199356014Y-90723637D01*
X199358362Y-90721097D01*
X199415919Y-90643170D01*
X199568860Y-90436106D01*
X199568865Y-90436098D01*
X199570923Y-90433312D01*
X199750621Y-90123940D01*
X199807841Y-89994512D01*
X203569500Y-89994512D01*
X203584617Y-90172675D01*
X203585957Y-90177839D01*
X203585958Y-90177843D01*
X203613669Y-90284606D01*
X203644668Y-90404040D01*
X203646860Y-90408906D01*
X203702345Y-90532077D01*
X203742843Y-90621980D01*
X203876334Y-90820262D01*
X203880013Y-90824119D01*
X203880015Y-90824121D01*
X203948550Y-90895964D01*
X204041326Y-90993218D01*
X204233100Y-91135902D01*
X204237851Y-91138318D01*
X204237855Y-91138320D01*
X204390718Y-91216039D01*
X204446172Y-91244233D01*
X204560312Y-91279674D01*
X204669349Y-91313532D01*
X204669355Y-91313533D01*
X204674452Y-91315116D01*
X204780117Y-91329121D01*
X204906127Y-91345823D01*
X204906131Y-91345823D01*
X204911411Y-91346523D01*
X204916740Y-91346323D01*
X204916741Y-91346323D01*
X205026767Y-91342192D01*
X205150274Y-91337555D01*
X205237184Y-91319319D01*
X205378984Y-91289567D01*
X205378987Y-91289566D01*
X205384211Y-91288470D01*
X205606533Y-91200671D01*
X205810883Y-91076668D01*
X205920812Y-90981277D01*
X205987386Y-90923507D01*
X205987388Y-90923505D01*
X205991419Y-90920007D01*
X205994802Y-90915881D01*
X205994806Y-90915877D01*
X206139593Y-90739295D01*
X206142978Y-90735167D01*
X206149542Y-90723637D01*
X206258584Y-90532077D01*
X206261227Y-90527434D01*
X206342784Y-90302747D01*
X206343734Y-90297495D01*
X206384580Y-90071615D01*
X206384581Y-90071607D01*
X206385318Y-90067531D01*
X206386500Y-90042468D01*
X206386500Y-89994512D01*
X207379500Y-89994512D01*
X207394617Y-90172675D01*
X207395957Y-90177839D01*
X207395958Y-90177843D01*
X207423669Y-90284606D01*
X207454668Y-90404040D01*
X207456860Y-90408906D01*
X207512345Y-90532077D01*
X207552843Y-90621980D01*
X207686334Y-90820262D01*
X207690013Y-90824119D01*
X207690015Y-90824121D01*
X207758550Y-90895964D01*
X207851326Y-90993218D01*
X208043100Y-91135902D01*
X208047851Y-91138318D01*
X208047855Y-91138320D01*
X208200718Y-91216039D01*
X208256172Y-91244233D01*
X208370312Y-91279674D01*
X208479349Y-91313532D01*
X208479355Y-91313533D01*
X208484452Y-91315116D01*
X208590117Y-91329121D01*
X208716127Y-91345823D01*
X208716131Y-91345823D01*
X208721411Y-91346523D01*
X208726740Y-91346323D01*
X208726741Y-91346323D01*
X208836767Y-91342192D01*
X208960274Y-91337555D01*
X209047184Y-91319319D01*
X209188984Y-91289567D01*
X209188987Y-91289566D01*
X209194211Y-91288470D01*
X209416533Y-91200671D01*
X209620883Y-91076668D01*
X209730812Y-90981277D01*
X209797386Y-90923507D01*
X209797388Y-90923505D01*
X209801419Y-90920007D01*
X209804802Y-90915881D01*
X209804806Y-90915877D01*
X209949593Y-90739295D01*
X209952978Y-90735167D01*
X209959542Y-90723637D01*
X210068584Y-90532077D01*
X210071227Y-90527434D01*
X210152784Y-90302747D01*
X210153734Y-90297495D01*
X210194580Y-90071615D01*
X210194581Y-90071607D01*
X210195318Y-90067531D01*
X210196500Y-90042468D01*
X210196500Y-88074488D01*
X210181383Y-87896325D01*
X210167697Y-87843594D01*
X210122673Y-87670125D01*
X210122671Y-87670120D01*
X210121332Y-87664960D01*
X210099964Y-87617524D01*
X210025347Y-87451881D01*
X210025346Y-87451878D01*
X210023157Y-87447020D01*
X209889666Y-87248738D01*
X209873436Y-87231724D01*
X209794827Y-87149321D01*
X209724674Y-87075782D01*
X209532900Y-86933098D01*
X209528149Y-86930682D01*
X209528145Y-86930680D01*
X209324586Y-86827186D01*
X209324585Y-86827186D01*
X209319828Y-86824767D01*
X209177362Y-86780530D01*
X209096651Y-86755468D01*
X209096645Y-86755467D01*
X209091548Y-86753884D01*
X208952151Y-86735408D01*
X208859873Y-86723177D01*
X208859869Y-86723177D01*
X208854589Y-86722477D01*
X208849260Y-86722677D01*
X208849259Y-86722677D01*
X208751491Y-86726348D01*
X208615726Y-86731445D01*
X208596839Y-86735408D01*
X208387016Y-86779433D01*
X208387013Y-86779434D01*
X208381789Y-86780530D01*
X208159467Y-86868329D01*
X207955117Y-86992332D01*
X207951087Y-86995829D01*
X207785764Y-87139289D01*
X207774581Y-87148993D01*
X207771198Y-87153119D01*
X207771194Y-87153123D01*
X207692795Y-87248738D01*
X207623022Y-87333833D01*
X207620383Y-87338469D01*
X207620381Y-87338472D01*
X207531119Y-87495283D01*
X207504773Y-87541566D01*
X207423216Y-87766253D01*
X207422267Y-87771502D01*
X207422266Y-87771505D01*
X207381420Y-87997385D01*
X207381419Y-87997393D01*
X207380682Y-88001469D01*
X207379500Y-88026532D01*
X207379500Y-89994512D01*
X206386500Y-89994512D01*
X206386500Y-88074488D01*
X206371383Y-87896325D01*
X206357697Y-87843594D01*
X206312673Y-87670125D01*
X206312671Y-87670120D01*
X206311332Y-87664960D01*
X206289964Y-87617524D01*
X206215347Y-87451881D01*
X206215346Y-87451878D01*
X206213157Y-87447020D01*
X206079666Y-87248738D01*
X206063436Y-87231724D01*
X205984827Y-87149321D01*
X205914674Y-87075782D01*
X205722900Y-86933098D01*
X205718149Y-86930682D01*
X205718145Y-86930680D01*
X205514586Y-86827186D01*
X205514585Y-86827186D01*
X205509828Y-86824767D01*
X205367362Y-86780530D01*
X205286651Y-86755468D01*
X205286645Y-86755467D01*
X205281548Y-86753884D01*
X205142151Y-86735408D01*
X205049873Y-86723177D01*
X205049869Y-86723177D01*
X205044589Y-86722477D01*
X205039260Y-86722677D01*
X205039259Y-86722677D01*
X204941491Y-86726348D01*
X204805726Y-86731445D01*
X204786839Y-86735408D01*
X204577016Y-86779433D01*
X204577013Y-86779434D01*
X204571789Y-86780530D01*
X204349467Y-86868329D01*
X204145117Y-86992332D01*
X204141087Y-86995829D01*
X203975764Y-87139289D01*
X203964581Y-87148993D01*
X203961198Y-87153119D01*
X203961194Y-87153123D01*
X203882795Y-87248738D01*
X203813022Y-87333833D01*
X203810383Y-87338469D01*
X203810381Y-87338472D01*
X203721119Y-87495283D01*
X203694773Y-87541566D01*
X203613216Y-87766253D01*
X203612267Y-87771502D01*
X203612266Y-87771505D01*
X203571420Y-87997385D01*
X203571419Y-87997393D01*
X203570682Y-88001469D01*
X203569500Y-88026532D01*
X203569500Y-89994512D01*
X199807841Y-89994512D01*
X199895285Y-89796717D01*
X200003167Y-89455596D01*
X200004129Y-89450763D01*
X200072291Y-89108089D01*
X200072966Y-89104696D01*
X200075959Y-89070148D01*
X200103538Y-88751712D01*
X200103538Y-88751706D01*
X200103837Y-88748256D01*
X200099099Y-88547212D01*
X200095490Y-88394045D01*
X200095489Y-88394038D01*
X200095408Y-88390581D01*
X200047780Y-88035991D01*
X200045800Y-88028019D01*
X199962367Y-87692136D01*
X199962365Y-87692129D01*
X199961530Y-87688768D01*
X199909077Y-87546587D01*
X199850438Y-87387640D01*
X199837698Y-87353108D01*
X199746822Y-87171238D01*
X199679326Y-87036156D01*
X199679322Y-87036149D01*
X199677780Y-87033063D01*
X199483709Y-86732499D01*
X199354419Y-86573691D01*
X199260012Y-86457729D01*
X199260005Y-86457722D01*
X199257827Y-86455046D01*
X199002863Y-86204056D01*
X199000016Y-86201811D01*
X198724620Y-85984707D01*
X198721897Y-85982560D01*
X198418322Y-85793234D01*
X198415196Y-85791733D01*
X198415187Y-85791728D01*
X198245759Y-85710370D01*
X198095804Y-85638363D01*
X198092535Y-85637215D01*
X197761499Y-85520963D01*
X197761491Y-85520961D01*
X197758240Y-85519819D01*
X197754878Y-85519040D01*
X197754872Y-85519038D01*
X197542887Y-85469903D01*
X197409705Y-85439033D01*
X197406288Y-85438629D01*
X197406279Y-85438627D01*
X197057115Y-85397301D01*
X197057114Y-85397301D01*
X197054411Y-85396981D01*
X197051696Y-85396896D01*
X197051687Y-85396895D01*
X197026731Y-85396111D01*
X197007286Y-85395500D01*
X196760183Y-85395500D01*
X196758464Y-85395595D01*
X196758449Y-85395595D01*
X196616311Y-85403418D01*
X196492766Y-85410217D01*
X196489354Y-85410785D01*
X196489344Y-85410786D01*
X196246045Y-85451283D01*
X196139847Y-85468959D01*
X195795505Y-85566073D01*
X195463900Y-85700387D01*
X195410547Y-85729175D01*
X195152086Y-85868633D01*
X195152082Y-85868636D01*
X195149036Y-85870279D01*
X195146188Y-85872248D01*
X195146187Y-85872248D01*
X194857557Y-86071731D01*
X194857551Y-86071735D01*
X194854716Y-86073695D01*
X194584496Y-86308181D01*
X194582148Y-86310721D01*
X194582146Y-86310723D01*
X194448735Y-86455046D01*
X194341638Y-86570903D01*
X194339579Y-86573691D01*
X194131140Y-86855894D01*
X194131135Y-86855902D01*
X194129077Y-86858688D01*
X194127338Y-86861682D01*
X194127336Y-86861685D01*
X194077009Y-86948330D01*
X193949379Y-87168060D01*
X193804715Y-87495283D01*
X193696833Y-87836404D01*
X193696158Y-87839797D01*
X193696156Y-87839805D01*
X193637683Y-88133768D01*
X193627034Y-88187304D01*
X193626736Y-88190745D01*
X193626735Y-88190752D01*
X193596462Y-88540288D01*
X193596163Y-88543744D01*
X183581489Y-88543744D01*
X183695969Y-88445969D01*
X183850176Y-88265416D01*
X183852755Y-88261208D01*
X183852759Y-88261202D01*
X183971654Y-88067183D01*
X183974240Y-88062963D01*
X183983990Y-88039426D01*
X184063211Y-87848167D01*
X184063212Y-87848165D01*
X184065105Y-87843594D01*
X184101467Y-87692136D01*
X184119380Y-87617524D01*
X184119381Y-87617518D01*
X184120535Y-87612711D01*
X184139165Y-87376000D01*
X184120535Y-87139289D01*
X184114858Y-87115640D01*
X184071033Y-86933098D01*
X184065105Y-86908406D01*
X184059300Y-86894391D01*
X183976135Y-86693611D01*
X183976133Y-86693607D01*
X183974240Y-86689037D01*
X183901847Y-86570903D01*
X183852759Y-86490798D01*
X183852755Y-86490792D01*
X183850176Y-86486584D01*
X183695969Y-86306031D01*
X183692213Y-86302823D01*
X183692208Y-86302818D01*
X183573944Y-86201811D01*
X183535134Y-86142361D01*
X183534628Y-86071366D01*
X183573944Y-86010189D01*
X183692208Y-85909182D01*
X183692213Y-85909177D01*
X183695969Y-85905969D01*
X183850176Y-85725416D01*
X183852755Y-85721208D01*
X183852759Y-85721202D01*
X183971654Y-85527183D01*
X183974240Y-85522963D01*
X184021020Y-85410027D01*
X184063211Y-85308167D01*
X184063212Y-85308165D01*
X184065105Y-85303594D01*
X184120535Y-85072711D01*
X184139165Y-84836000D01*
X184120535Y-84599289D01*
X184065105Y-84368406D01*
X183974240Y-84149037D01*
X183915904Y-84053842D01*
X183852759Y-83950798D01*
X183852755Y-83950792D01*
X183850176Y-83946584D01*
X183695969Y-83766031D01*
X183515416Y-83611824D01*
X183511208Y-83609245D01*
X183511202Y-83609241D01*
X183317183Y-83490346D01*
X183312963Y-83487760D01*
X183308393Y-83485867D01*
X183308389Y-83485865D01*
X183098167Y-83398789D01*
X183098165Y-83398788D01*
X183093594Y-83396895D01*
X182985646Y-83370979D01*
X182867524Y-83342620D01*
X182867518Y-83342619D01*
X182862711Y-83341465D01*
X182626000Y-83322835D01*
X182389289Y-83341465D01*
X182384482Y-83342619D01*
X182384476Y-83342620D01*
X182266354Y-83370979D01*
X182158406Y-83396895D01*
X182153835Y-83398788D01*
X182153833Y-83398789D01*
X181943611Y-83485865D01*
X181943607Y-83485867D01*
X181939037Y-83487760D01*
X181934817Y-83490346D01*
X181740798Y-83609241D01*
X181740792Y-83609245D01*
X181736584Y-83611824D01*
X181556031Y-83766031D01*
X181552823Y-83769787D01*
X181552818Y-83769792D01*
X181451811Y-83888056D01*
X181392361Y-83926866D01*
X181321366Y-83927372D01*
X181260189Y-83888056D01*
X181159182Y-83769792D01*
X181159177Y-83769787D01*
X181155969Y-83766031D01*
X180975416Y-83611824D01*
X180971208Y-83609245D01*
X180971202Y-83609241D01*
X180777183Y-83490346D01*
X180772963Y-83487760D01*
X180768393Y-83485867D01*
X180768389Y-83485865D01*
X180558167Y-83398789D01*
X180558165Y-83398788D01*
X180553594Y-83396895D01*
X180445646Y-83370979D01*
X180327524Y-83342620D01*
X180327518Y-83342619D01*
X180322711Y-83341465D01*
X180086000Y-83322835D01*
X179849289Y-83341465D01*
X179844482Y-83342619D01*
X179844476Y-83342620D01*
X179641827Y-83391272D01*
X179570919Y-83387725D01*
X179523318Y-83357848D01*
X176391065Y-80225595D01*
X176357039Y-80163283D01*
X176362104Y-80092468D01*
X176404651Y-80035632D01*
X176471171Y-80010821D01*
X176480160Y-80010500D01*
X208484633Y-80010500D01*
X208504018Y-80012000D01*
G37*
%TD.AperFunction*%
%TA.AperFunction,NonConductor*%
G36*
X147605460Y-80030502D02*
G01*
X147651953Y-80084158D01*
X147662057Y-80154432D01*
X147632563Y-80219012D01*
X147626434Y-80225595D01*
X145156935Y-82695095D01*
X145094623Y-82729120D01*
X145067840Y-82732000D01*
X143931866Y-82732000D01*
X143869684Y-82738755D01*
X143733295Y-82789885D01*
X143616739Y-82877239D01*
X143610826Y-82885128D01*
X143610122Y-82885655D01*
X143605008Y-82890769D01*
X143604270Y-82890031D01*
X143553969Y-82927643D01*
X143483151Y-82932670D01*
X143420857Y-82898612D01*
X143409177Y-82885133D01*
X143403261Y-82877239D01*
X143286705Y-82789885D01*
X143150316Y-82738755D01*
X143088134Y-82732000D01*
X141391866Y-82732000D01*
X141329684Y-82738755D01*
X141193295Y-82789885D01*
X141076739Y-82877239D01*
X140989385Y-82993795D01*
X140938255Y-83130184D01*
X140931500Y-83192366D01*
X140931500Y-86688634D01*
X140938255Y-86750816D01*
X140989385Y-86887205D01*
X141076739Y-87003761D01*
X141193295Y-87091115D01*
X141329684Y-87142245D01*
X141377627Y-87147453D01*
X141387244Y-87148498D01*
X141452806Y-87175740D01*
X141473312Y-87198483D01*
X141473871Y-87198030D01*
X141482727Y-87208966D01*
X141493927Y-87225263D01*
X141497657Y-87231724D01*
X141497660Y-87231728D01*
X141500960Y-87237444D01*
X141505377Y-87242350D01*
X141505381Y-87242355D01*
X141546722Y-87288269D01*
X141551006Y-87293284D01*
X141563928Y-87309241D01*
X141578443Y-87323756D01*
X141582984Y-87328541D01*
X141628747Y-87379366D01*
X141634086Y-87383245D01*
X141634087Y-87383246D01*
X141640135Y-87387640D01*
X141655168Y-87400481D01*
X143231519Y-88976832D01*
X143244360Y-88991865D01*
X143252634Y-89003253D01*
X143257543Y-89007673D01*
X143303459Y-89049016D01*
X143308244Y-89053557D01*
X143322759Y-89068072D01*
X143325323Y-89070148D01*
X143338716Y-89080994D01*
X143343731Y-89085278D01*
X143389645Y-89126619D01*
X143389650Y-89126623D01*
X143394556Y-89131040D01*
X143400272Y-89134340D01*
X143400276Y-89134343D01*
X143406737Y-89138073D01*
X143423033Y-89149273D01*
X143433970Y-89158129D01*
X143466587Y-89174748D01*
X143494921Y-89189185D01*
X143500715Y-89192331D01*
X143559944Y-89226527D01*
X143566226Y-89228568D01*
X143566228Y-89228569D01*
X143573326Y-89230875D01*
X143591592Y-89238440D01*
X143604130Y-89244829D01*
X143610506Y-89246538D01*
X143610510Y-89246539D01*
X143670185Y-89262529D01*
X143676510Y-89264402D01*
X143741572Y-89285542D01*
X143748140Y-89286232D01*
X143748144Y-89286233D01*
X143755561Y-89287012D01*
X143775008Y-89290616D01*
X143788596Y-89294257D01*
X143795195Y-89294603D01*
X143795196Y-89294603D01*
X143856885Y-89297836D01*
X143863460Y-89298353D01*
X143877722Y-89299852D01*
X143883890Y-89300500D01*
X143904425Y-89300500D01*
X143911019Y-89300673D01*
X143972717Y-89303907D01*
X143972722Y-89303907D01*
X143979309Y-89304252D01*
X143993207Y-89302051D01*
X144012916Y-89300500D01*
X157144583Y-89300500D01*
X157164292Y-89302051D01*
X157178190Y-89304252D01*
X157184777Y-89303907D01*
X157184782Y-89303907D01*
X157246480Y-89300673D01*
X157253074Y-89300500D01*
X164426055Y-89300500D01*
X164496058Y-89321735D01*
X164568803Y-89370342D01*
X164574106Y-89372620D01*
X164574109Y-89372622D01*
X164681875Y-89418922D01*
X164736568Y-89464191D01*
X164758105Y-89531842D01*
X164739648Y-89600397D01*
X164687057Y-89648091D01*
X164675748Y-89652902D01*
X164639302Y-89666348D01*
X164620734Y-89673198D01*
X164615773Y-89676150D01*
X164615772Y-89676150D01*
X164488641Y-89751785D01*
X164424218Y-89769500D01*
X143845416Y-89769500D01*
X143825707Y-89767949D01*
X143811809Y-89765748D01*
X143805222Y-89766093D01*
X143805217Y-89766093D01*
X143743519Y-89769327D01*
X143736925Y-89769500D01*
X143716390Y-89769500D01*
X143710222Y-89770148D01*
X143695960Y-89771647D01*
X143689385Y-89772164D01*
X143627696Y-89775397D01*
X143627695Y-89775397D01*
X143621096Y-89775743D01*
X143607508Y-89779384D01*
X143588061Y-89782988D01*
X143580644Y-89783767D01*
X143580640Y-89783768D01*
X143574072Y-89784458D01*
X143530181Y-89798719D01*
X143509009Y-89805598D01*
X143502685Y-89807471D01*
X143443010Y-89823461D01*
X143443006Y-89823462D01*
X143436630Y-89825171D01*
X143430748Y-89828168D01*
X143424093Y-89831559D01*
X143405826Y-89839125D01*
X143398728Y-89841431D01*
X143398726Y-89841432D01*
X143392444Y-89843473D01*
X143386722Y-89846777D01*
X143386721Y-89846777D01*
X143333223Y-89877664D01*
X143327426Y-89880812D01*
X143272352Y-89908873D01*
X143272349Y-89908875D01*
X143266469Y-89911871D01*
X143255526Y-89920733D01*
X143239237Y-89931927D01*
X143227056Y-89938960D01*
X143222150Y-89943377D01*
X143222145Y-89943381D01*
X143176221Y-89984731D01*
X143171220Y-89989003D01*
X143155259Y-90001928D01*
X143140744Y-90016443D01*
X143135959Y-90020984D01*
X143085134Y-90066747D01*
X143081255Y-90072086D01*
X143081254Y-90072087D01*
X143076860Y-90078135D01*
X143064019Y-90093168D01*
X141862092Y-91295095D01*
X141799780Y-91329121D01*
X141772997Y-91332000D01*
X141391866Y-91332000D01*
X141329684Y-91338755D01*
X141193295Y-91389885D01*
X141076739Y-91477239D01*
X140989385Y-91593795D01*
X140938255Y-91730184D01*
X140931500Y-91792366D01*
X140931500Y-95288634D01*
X140938255Y-95350816D01*
X140989385Y-95487205D01*
X141076739Y-95603761D01*
X141193295Y-95691115D01*
X141329684Y-95742245D01*
X141391866Y-95749000D01*
X143088134Y-95749000D01*
X143150316Y-95742245D01*
X143286705Y-95691115D01*
X143403261Y-95603761D01*
X143409174Y-95595872D01*
X143409878Y-95595345D01*
X143414992Y-95590231D01*
X143415730Y-95590969D01*
X143466031Y-95553357D01*
X143536849Y-95548330D01*
X143599143Y-95582388D01*
X143610823Y-95595867D01*
X143616739Y-95603761D01*
X143733295Y-95691115D01*
X143869684Y-95742245D01*
X143931866Y-95749000D01*
X145133465Y-95749000D01*
X145201586Y-95769002D01*
X145222560Y-95785905D01*
X147695675Y-98259020D01*
X147701529Y-98265285D01*
X147739564Y-98308885D01*
X147758813Y-98322413D01*
X147803045Y-98377946D01*
X147810232Y-98448578D01*
X147778091Y-98511883D01*
X147716828Y-98547762D01*
X147686363Y-98551500D01*
X141232817Y-98551500D01*
X141164696Y-98531498D01*
X141143722Y-98514595D01*
X136553823Y-93924696D01*
X136546200Y-93915156D01*
X136545832Y-93915470D01*
X136540014Y-93908634D01*
X136535224Y-93901042D01*
X136494875Y-93865407D01*
X136489188Y-93860061D01*
X136477745Y-93848618D01*
X136469370Y-93842341D01*
X136461541Y-93835967D01*
X136426049Y-93804622D01*
X136417926Y-93800808D01*
X136415438Y-93799174D01*
X136400477Y-93790186D01*
X136397892Y-93788771D01*
X136390705Y-93783384D01*
X136346357Y-93766759D01*
X136337040Y-93762832D01*
X136336572Y-93762612D01*
X136294200Y-93742719D01*
X136285331Y-93741338D01*
X136282498Y-93740472D01*
X136265611Y-93736042D01*
X136262726Y-93735408D01*
X136254316Y-93732255D01*
X136225158Y-93730088D01*
X136207094Y-93728746D01*
X136197048Y-93727592D01*
X136188425Y-93726249D01*
X136188422Y-93726249D01*
X136183614Y-93725500D01*
X136168094Y-93725500D01*
X136158757Y-93725154D01*
X136141854Y-93723898D01*
X136109059Y-93721461D01*
X136100280Y-93723335D01*
X136092022Y-93723898D01*
X136076839Y-93725500D01*
X130682500Y-93725500D01*
X130614379Y-93705498D01*
X130567886Y-93651842D01*
X130556500Y-93599500D01*
X130556500Y-88543744D01*
X131620163Y-88543744D01*
X131622577Y-88646169D01*
X131627856Y-88870176D01*
X131628592Y-88901419D01*
X131676220Y-89256009D01*
X131677056Y-89259373D01*
X131677056Y-89259375D01*
X131753764Y-89568183D01*
X131762470Y-89603232D01*
X131763670Y-89606485D01*
X131763671Y-89606488D01*
X131825985Y-89775397D01*
X131886302Y-89938892D01*
X131952620Y-90071615D01*
X132044674Y-90255844D01*
X132044678Y-90255851D01*
X132046220Y-90258937D01*
X132240291Y-90559501D01*
X132333756Y-90674305D01*
X132463988Y-90834271D01*
X132463995Y-90834278D01*
X132466173Y-90836954D01*
X132468637Y-90839380D01*
X132468641Y-90839384D01*
X132568700Y-90937883D01*
X132721137Y-91087944D01*
X132723856Y-91090088D01*
X132723860Y-91090091D01*
X132794760Y-91145984D01*
X133002103Y-91309440D01*
X133005049Y-91311277D01*
X133005050Y-91311278D01*
X133045428Y-91336460D01*
X133305678Y-91498766D01*
X133308804Y-91500267D01*
X133308813Y-91500272D01*
X133478241Y-91581630D01*
X133628196Y-91653637D01*
X133631465Y-91654785D01*
X133962501Y-91771037D01*
X133962509Y-91771039D01*
X133965760Y-91772181D01*
X133969122Y-91772960D01*
X133969128Y-91772962D01*
X134038188Y-91788969D01*
X134314295Y-91852967D01*
X134317712Y-91853371D01*
X134317721Y-91853373D01*
X134666885Y-91894699D01*
X134669589Y-91895019D01*
X134672304Y-91895104D01*
X134672313Y-91895105D01*
X134697269Y-91895889D01*
X134716714Y-91896500D01*
X134963817Y-91896500D01*
X134965536Y-91896405D01*
X134965551Y-91896405D01*
X135107689Y-91888582D01*
X135231234Y-91881783D01*
X135234646Y-91881215D01*
X135234656Y-91881214D01*
X135477955Y-91840717D01*
X135584153Y-91823041D01*
X135928495Y-91725927D01*
X136260100Y-91591613D01*
X136432175Y-91498766D01*
X136571914Y-91423367D01*
X136571918Y-91423364D01*
X136574964Y-91421721D01*
X136625588Y-91386733D01*
X136866443Y-91220269D01*
X136866449Y-91220265D01*
X136869284Y-91218305D01*
X137128673Y-90993218D01*
X137136887Y-90986090D01*
X137136888Y-90986089D01*
X137139504Y-90983819D01*
X137176912Y-90943352D01*
X137380014Y-90723637D01*
X137382362Y-90721097D01*
X137439919Y-90643170D01*
X137592860Y-90436106D01*
X137592865Y-90436098D01*
X137594923Y-90433312D01*
X137774621Y-90123940D01*
X137919285Y-89796717D01*
X138027167Y-89455596D01*
X138028129Y-89450763D01*
X138096291Y-89108089D01*
X138096966Y-89104696D01*
X138099959Y-89070148D01*
X138127538Y-88751712D01*
X138127538Y-88751706D01*
X138127837Y-88748256D01*
X138123099Y-88547212D01*
X138119490Y-88394045D01*
X138119489Y-88394038D01*
X138119408Y-88390581D01*
X138071780Y-88035991D01*
X138069800Y-88028019D01*
X137986367Y-87692136D01*
X137986365Y-87692129D01*
X137985530Y-87688768D01*
X137933077Y-87546587D01*
X137874438Y-87387640D01*
X137861698Y-87353108D01*
X137770822Y-87171238D01*
X137703326Y-87036156D01*
X137703322Y-87036149D01*
X137701780Y-87033063D01*
X137507709Y-86732499D01*
X137378419Y-86573691D01*
X137284012Y-86457729D01*
X137284005Y-86457722D01*
X137281827Y-86455046D01*
X137026863Y-86204056D01*
X137024016Y-86201811D01*
X136748620Y-85984707D01*
X136745897Y-85982560D01*
X136442322Y-85793234D01*
X136439196Y-85791733D01*
X136439187Y-85791728D01*
X136269759Y-85710370D01*
X136119804Y-85638363D01*
X136116535Y-85637215D01*
X135785499Y-85520963D01*
X135785491Y-85520961D01*
X135782240Y-85519819D01*
X135778878Y-85519040D01*
X135778872Y-85519038D01*
X135566887Y-85469903D01*
X135433705Y-85439033D01*
X135430288Y-85438629D01*
X135430279Y-85438627D01*
X135081115Y-85397301D01*
X135081114Y-85397301D01*
X135078411Y-85396981D01*
X135075696Y-85396896D01*
X135075687Y-85396895D01*
X135050731Y-85396111D01*
X135031286Y-85395500D01*
X134784183Y-85395500D01*
X134782464Y-85395595D01*
X134782449Y-85395595D01*
X134640311Y-85403418D01*
X134516766Y-85410217D01*
X134513354Y-85410785D01*
X134513344Y-85410786D01*
X134270045Y-85451283D01*
X134163847Y-85468959D01*
X133819505Y-85566073D01*
X133487900Y-85700387D01*
X133434547Y-85729175D01*
X133176086Y-85868633D01*
X133176082Y-85868636D01*
X133173036Y-85870279D01*
X133170188Y-85872248D01*
X133170187Y-85872248D01*
X132881557Y-86071731D01*
X132881551Y-86071735D01*
X132878716Y-86073695D01*
X132608496Y-86308181D01*
X132606148Y-86310721D01*
X132606146Y-86310723D01*
X132472735Y-86455046D01*
X132365638Y-86570903D01*
X132363579Y-86573691D01*
X132155140Y-86855894D01*
X132155135Y-86855902D01*
X132153077Y-86858688D01*
X132151338Y-86861682D01*
X132151336Y-86861685D01*
X132101009Y-86948330D01*
X131973379Y-87168060D01*
X131828715Y-87495283D01*
X131720833Y-87836404D01*
X131720158Y-87839797D01*
X131720156Y-87839805D01*
X131661683Y-88133768D01*
X131651034Y-88187304D01*
X131650736Y-88190745D01*
X131650735Y-88190752D01*
X131620462Y-88540288D01*
X131620163Y-88543744D01*
X130556500Y-88543744D01*
X130556500Y-83619250D01*
X130558246Y-83598345D01*
X130560770Y-83583344D01*
X130560770Y-83583341D01*
X130561576Y-83578552D01*
X130561729Y-83566000D01*
X130561040Y-83561185D01*
X130561039Y-83561177D01*
X130559550Y-83550781D01*
X130558429Y-83526735D01*
X130564002Y-83413309D01*
X130573318Y-83223676D01*
X130574529Y-83211377D01*
X130585408Y-83138040D01*
X130623910Y-82878480D01*
X130626321Y-82866355D01*
X130708095Y-82539899D01*
X130711684Y-82528067D01*
X130825061Y-82211197D01*
X130829793Y-82199773D01*
X130973683Y-81895544D01*
X130979512Y-81884639D01*
X131152530Y-81595976D01*
X131159400Y-81585695D01*
X131359874Y-81315387D01*
X131367718Y-81305829D01*
X131593725Y-81056469D01*
X131602469Y-81047725D01*
X131851829Y-80821718D01*
X131861387Y-80813874D01*
X132131695Y-80613400D01*
X132141976Y-80606530D01*
X132430639Y-80433512D01*
X132441544Y-80427683D01*
X132745773Y-80283793D01*
X132757197Y-80279061D01*
X133074067Y-80165684D01*
X133085899Y-80162095D01*
X133363862Y-80092468D01*
X133412358Y-80080320D01*
X133424480Y-80077910D01*
X133757382Y-80028528D01*
X133769676Y-80027318D01*
X134069038Y-80012610D01*
X134094598Y-80013958D01*
X134105724Y-80015691D01*
X134137286Y-80011564D01*
X134153621Y-80010500D01*
X147537339Y-80010500D01*
X147605460Y-80030502D01*
G37*
%TD.AperFunction*%
M02*
