%TF.GenerationSoftware,KiCad,Pcbnew,(6.0.11)*%
%TF.CreationDate,2024-03-18T15:41:05-03:00*%
%TF.ProjectId,qds-cv-bypass-adapter,7164732d-6376-42d6-9279-706173732d61,rev?*%
%TF.SameCoordinates,Original*%
%TF.FileFunction,Copper,L2,Bot*%
%TF.FilePolarity,Positive*%
%FSLAX46Y46*%
G04 Gerber Fmt 4.6, Leading zero omitted, Abs format (unit mm)*
G04 Created by KiCad (PCBNEW (6.0.11)) date 2024-03-18 15:41:05*
%MOMM*%
%LPD*%
G01*
G04 APERTURE LIST*
%TA.AperFunction,ComponentPad*%
%ADD10O,1.800000X3.600000*%
%TD*%
%TA.AperFunction,ComponentPad*%
%ADD11C,2.000000*%
%TD*%
%TA.AperFunction,ViaPad*%
%ADD12C,1.200000*%
%TD*%
%TA.AperFunction,Conductor*%
%ADD13C,0.800000*%
%TD*%
G04 APERTURE END LIST*
D10*
%TO.P,J1,1,Pin_1*%
%TO.N,Net-(SW1-Pad4)*%
X204978000Y-89034500D03*
%TO.P,J1,2,Pin_2*%
%TO.N,Net-(SW1-Pad1)*%
X208788000Y-89034500D03*
%TD*%
D11*
%TO.P,J2,1,Pin_1*%
%TO.N,Net-(J2-Pad1)*%
X172466000Y-84836000D03*
%TO.P,J2,2,Pin_2*%
%TO.N,Net-(J2-Pad2)*%
X172466000Y-87376000D03*
%TO.P,J2,3,Pin_3*%
%TO.N,Net-(J2-Pad3)*%
X175006000Y-84836000D03*
%TO.P,J2,4,Pin_4*%
%TO.N,Net-(J2-Pad4)*%
X175006000Y-87376000D03*
%TO.P,J2,5,Pin_5*%
%TO.N,Net-(J2-Pad5)*%
X177546000Y-84836000D03*
%TO.P,J2,6,Pin_6*%
%TO.N,Net-(J2-Pad6)*%
X177546000Y-87376000D03*
%TO.P,J2,7,Pin_7*%
%TO.N,Net-(J2-Pad7)*%
X180086000Y-84836000D03*
%TO.P,J2,8,Pin_8*%
%TO.N,Net-(J2-Pad8)*%
X180086000Y-87376000D03*
%TO.P,J2,9,Pin_9*%
%TO.N,unconnected-(J2-Pad9)*%
X182626000Y-84836000D03*
%TO.P,J2,10,Pin_10*%
%TO.N,unconnected-(J2-Pad10)*%
X182626000Y-87376000D03*
%TD*%
D12*
%TO.N,Net-(SW1-Pad1)*%
X165100000Y-90678000D03*
%TO.N,Net-(SW1-Pad4)*%
X165100000Y-88392000D03*
%TD*%
D13*
%TO.N,Net-(SW1-Pad1)*%
X205740000Y-92710000D02*
X208788000Y-89662000D01*
X165100000Y-90678000D02*
X167132000Y-92710000D01*
X208788000Y-89034500D02*
X208788000Y-88197750D01*
X208788000Y-89662000D02*
X208788000Y-89034500D01*
X167132000Y-92710000D02*
X205740000Y-92710000D01*
%TO.N,Net-(SW1-Pad4)*%
X171196000Y-82296000D02*
X165100000Y-88392000D01*
X204978000Y-88392000D02*
X198882000Y-82296000D01*
X204978000Y-89034500D02*
X204978000Y-88392000D01*
X198882000Y-82296000D02*
X171196000Y-82296000D01*
%TD*%
%TA.AperFunction,NonConductor*%
G36*
X182057564Y-83224502D02*
G01*
X182104057Y-83278158D01*
X182114161Y-83348432D01*
X182084667Y-83413012D01*
X182037661Y-83446909D01*
X181943611Y-83485865D01*
X181943607Y-83485867D01*
X181939037Y-83487760D01*
X181934817Y-83490346D01*
X181740798Y-83609241D01*
X181740792Y-83609245D01*
X181736584Y-83611824D01*
X181556031Y-83766031D01*
X181552823Y-83769787D01*
X181552818Y-83769792D01*
X181451811Y-83888056D01*
X181392361Y-83926866D01*
X181321366Y-83927372D01*
X181260189Y-83888056D01*
X181159182Y-83769792D01*
X181159177Y-83769787D01*
X181155969Y-83766031D01*
X180975416Y-83611824D01*
X180971208Y-83609245D01*
X180971202Y-83609241D01*
X180777183Y-83490346D01*
X180772963Y-83487760D01*
X180768393Y-83485867D01*
X180768389Y-83485865D01*
X180674339Y-83446909D01*
X180619058Y-83402361D01*
X180596637Y-83334998D01*
X180614195Y-83266206D01*
X180666157Y-83217828D01*
X180722557Y-83204500D01*
X181989443Y-83204500D01*
X182057564Y-83224502D01*
G37*
%TD.AperFunction*%
%TA.AperFunction,NonConductor*%
G36*
X179517564Y-83224502D02*
G01*
X179564057Y-83278158D01*
X179574161Y-83348432D01*
X179544667Y-83413012D01*
X179497661Y-83446909D01*
X179403611Y-83485865D01*
X179403607Y-83485867D01*
X179399037Y-83487760D01*
X179394817Y-83490346D01*
X179200798Y-83609241D01*
X179200792Y-83609245D01*
X179196584Y-83611824D01*
X179016031Y-83766031D01*
X179012823Y-83769787D01*
X179012818Y-83769792D01*
X178911811Y-83888056D01*
X178852361Y-83926866D01*
X178781366Y-83927372D01*
X178720189Y-83888056D01*
X178619182Y-83769792D01*
X178619177Y-83769787D01*
X178615969Y-83766031D01*
X178435416Y-83611824D01*
X178431208Y-83609245D01*
X178431202Y-83609241D01*
X178237183Y-83490346D01*
X178232963Y-83487760D01*
X178228393Y-83485867D01*
X178228389Y-83485865D01*
X178134339Y-83446909D01*
X178079058Y-83402361D01*
X178056637Y-83334998D01*
X178074195Y-83266206D01*
X178126157Y-83217828D01*
X178182557Y-83204500D01*
X179449443Y-83204500D01*
X179517564Y-83224502D01*
G37*
%TD.AperFunction*%
%TA.AperFunction,NonConductor*%
G36*
X176977564Y-83224502D02*
G01*
X177024057Y-83278158D01*
X177034161Y-83348432D01*
X177004667Y-83413012D01*
X176957661Y-83446909D01*
X176863611Y-83485865D01*
X176863607Y-83485867D01*
X176859037Y-83487760D01*
X176854817Y-83490346D01*
X176660798Y-83609241D01*
X176660792Y-83609245D01*
X176656584Y-83611824D01*
X176476031Y-83766031D01*
X176472823Y-83769787D01*
X176472818Y-83769792D01*
X176371811Y-83888056D01*
X176312361Y-83926866D01*
X176241366Y-83927372D01*
X176180189Y-83888056D01*
X176079182Y-83769792D01*
X176079177Y-83769787D01*
X176075969Y-83766031D01*
X175895416Y-83611824D01*
X175891208Y-83609245D01*
X175891202Y-83609241D01*
X175697183Y-83490346D01*
X175692963Y-83487760D01*
X175688393Y-83485867D01*
X175688389Y-83485865D01*
X175594339Y-83446909D01*
X175539058Y-83402361D01*
X175516637Y-83334998D01*
X175534195Y-83266206D01*
X175586157Y-83217828D01*
X175642557Y-83204500D01*
X176909443Y-83204500D01*
X176977564Y-83224502D01*
G37*
%TD.AperFunction*%
%TA.AperFunction,NonConductor*%
G36*
X174437564Y-83224502D02*
G01*
X174484057Y-83278158D01*
X174494161Y-83348432D01*
X174464667Y-83413012D01*
X174417661Y-83446909D01*
X174323611Y-83485865D01*
X174323607Y-83485867D01*
X174319037Y-83487760D01*
X174314817Y-83490346D01*
X174120798Y-83609241D01*
X174120792Y-83609245D01*
X174116584Y-83611824D01*
X173936031Y-83766031D01*
X173932823Y-83769787D01*
X173932818Y-83769792D01*
X173831811Y-83888056D01*
X173772361Y-83926866D01*
X173701366Y-83927372D01*
X173640189Y-83888056D01*
X173539182Y-83769792D01*
X173539177Y-83769787D01*
X173535969Y-83766031D01*
X173355416Y-83611824D01*
X173351208Y-83609245D01*
X173351202Y-83609241D01*
X173157183Y-83490346D01*
X173152963Y-83487760D01*
X173148393Y-83485867D01*
X173148389Y-83485865D01*
X173054339Y-83446909D01*
X172999058Y-83402361D01*
X172976637Y-83334998D01*
X172994195Y-83266206D01*
X173046157Y-83217828D01*
X173102557Y-83204500D01*
X174369443Y-83204500D01*
X174437564Y-83224502D01*
G37*
%TD.AperFunction*%
%TA.AperFunction,NonConductor*%
G36*
X173831811Y-85783944D02*
G01*
X173932818Y-85902208D01*
X173932823Y-85902213D01*
X173936031Y-85905969D01*
X173939787Y-85909177D01*
X173939792Y-85909182D01*
X174058056Y-86010189D01*
X174096866Y-86069639D01*
X174097372Y-86140634D01*
X174058056Y-86201811D01*
X173939792Y-86302818D01*
X173939787Y-86302823D01*
X173936031Y-86306031D01*
X173932823Y-86309787D01*
X173932818Y-86309792D01*
X173831811Y-86428056D01*
X173772361Y-86466866D01*
X173701366Y-86467372D01*
X173640189Y-86428056D01*
X173539182Y-86309792D01*
X173539177Y-86309787D01*
X173535969Y-86306031D01*
X173532213Y-86302823D01*
X173532208Y-86302818D01*
X173413944Y-86201811D01*
X173375134Y-86142361D01*
X173374628Y-86071366D01*
X173413944Y-86010189D01*
X173532208Y-85909182D01*
X173532213Y-85909177D01*
X173535969Y-85905969D01*
X173539177Y-85902213D01*
X173539182Y-85902208D01*
X173640189Y-85783944D01*
X173699639Y-85745134D01*
X173770634Y-85744628D01*
X173831811Y-85783944D01*
G37*
%TD.AperFunction*%
%TA.AperFunction,NonConductor*%
G36*
X181451811Y-85783944D02*
G01*
X181552818Y-85902208D01*
X181552823Y-85902213D01*
X181556031Y-85905969D01*
X181559787Y-85909177D01*
X181559792Y-85909182D01*
X181678056Y-86010189D01*
X181716866Y-86069639D01*
X181717372Y-86140634D01*
X181678056Y-86201811D01*
X181559792Y-86302818D01*
X181559787Y-86302823D01*
X181556031Y-86306031D01*
X181552823Y-86309787D01*
X181552818Y-86309792D01*
X181451811Y-86428056D01*
X181392361Y-86466866D01*
X181321366Y-86467372D01*
X181260189Y-86428056D01*
X181159182Y-86309792D01*
X181159177Y-86309787D01*
X181155969Y-86306031D01*
X181152213Y-86302823D01*
X181152208Y-86302818D01*
X181033944Y-86201811D01*
X180995134Y-86142361D01*
X180994628Y-86071366D01*
X181033944Y-86010189D01*
X181152208Y-85909182D01*
X181152213Y-85909177D01*
X181155969Y-85905969D01*
X181159177Y-85902213D01*
X181159182Y-85902208D01*
X181260189Y-85783944D01*
X181319639Y-85745134D01*
X181390634Y-85744628D01*
X181451811Y-85783944D01*
G37*
%TD.AperFunction*%
%TA.AperFunction,NonConductor*%
G36*
X176371811Y-85783944D02*
G01*
X176472818Y-85902208D01*
X176472823Y-85902213D01*
X176476031Y-85905969D01*
X176479787Y-85909177D01*
X176479792Y-85909182D01*
X176598056Y-86010189D01*
X176636866Y-86069639D01*
X176637372Y-86140634D01*
X176598056Y-86201811D01*
X176479792Y-86302818D01*
X176479787Y-86302823D01*
X176476031Y-86306031D01*
X176472823Y-86309787D01*
X176472818Y-86309792D01*
X176371811Y-86428056D01*
X176312361Y-86466866D01*
X176241366Y-86467372D01*
X176180189Y-86428056D01*
X176079182Y-86309792D01*
X176079177Y-86309787D01*
X176075969Y-86306031D01*
X176072213Y-86302823D01*
X176072208Y-86302818D01*
X175953944Y-86201811D01*
X175915134Y-86142361D01*
X175914628Y-86071366D01*
X175953944Y-86010189D01*
X176072208Y-85909182D01*
X176072213Y-85909177D01*
X176075969Y-85905969D01*
X176079177Y-85902213D01*
X176079182Y-85902208D01*
X176180189Y-85783944D01*
X176239639Y-85745134D01*
X176310634Y-85744628D01*
X176371811Y-85783944D01*
G37*
%TD.AperFunction*%
%TA.AperFunction,NonConductor*%
G36*
X178911811Y-85783944D02*
G01*
X179012818Y-85902208D01*
X179012823Y-85902213D01*
X179016031Y-85905969D01*
X179019787Y-85909177D01*
X179019792Y-85909182D01*
X179138056Y-86010189D01*
X179176866Y-86069639D01*
X179177372Y-86140634D01*
X179138056Y-86201811D01*
X179019792Y-86302818D01*
X179019787Y-86302823D01*
X179016031Y-86306031D01*
X179012823Y-86309787D01*
X179012818Y-86309792D01*
X178911811Y-86428056D01*
X178852361Y-86466866D01*
X178781366Y-86467372D01*
X178720189Y-86428056D01*
X178619182Y-86309792D01*
X178619177Y-86309787D01*
X178615969Y-86306031D01*
X178612213Y-86302823D01*
X178612208Y-86302818D01*
X178493944Y-86201811D01*
X178455134Y-86142361D01*
X178454628Y-86071366D01*
X178493944Y-86010189D01*
X178612208Y-85909182D01*
X178612213Y-85909177D01*
X178615969Y-85905969D01*
X178619177Y-85902213D01*
X178619182Y-85902208D01*
X178720189Y-85783944D01*
X178779639Y-85745134D01*
X178850634Y-85744628D01*
X178911811Y-85783944D01*
G37*
%TD.AperFunction*%
%TA.AperFunction,NonConductor*%
G36*
X171897564Y-83224502D02*
G01*
X171944057Y-83278158D01*
X171954161Y-83348432D01*
X171924667Y-83413012D01*
X171877661Y-83446909D01*
X171783611Y-83485865D01*
X171783607Y-83485867D01*
X171779037Y-83487760D01*
X171774817Y-83490346D01*
X171580798Y-83609241D01*
X171580792Y-83609245D01*
X171576584Y-83611824D01*
X171396031Y-83766031D01*
X171241824Y-83946584D01*
X171239245Y-83950792D01*
X171239241Y-83950798D01*
X171120346Y-84144817D01*
X171117760Y-84149037D01*
X171026895Y-84368406D01*
X170971465Y-84599289D01*
X170952835Y-84836000D01*
X170971465Y-85072711D01*
X171026895Y-85303594D01*
X171028788Y-85308165D01*
X171028789Y-85308167D01*
X171070981Y-85410027D01*
X171117760Y-85522963D01*
X171120346Y-85527183D01*
X171239241Y-85721202D01*
X171239245Y-85721208D01*
X171241824Y-85725416D01*
X171396031Y-85905969D01*
X171399787Y-85909177D01*
X171399792Y-85909182D01*
X171518056Y-86010189D01*
X171556866Y-86069639D01*
X171557372Y-86140634D01*
X171518056Y-86201811D01*
X171399792Y-86302818D01*
X171399787Y-86302823D01*
X171396031Y-86306031D01*
X171241824Y-86486584D01*
X171239245Y-86490792D01*
X171239241Y-86490798D01*
X171190153Y-86570903D01*
X171117760Y-86689037D01*
X171115867Y-86693607D01*
X171115865Y-86693611D01*
X171046247Y-86861685D01*
X171026895Y-86908406D01*
X171020967Y-86933098D01*
X170985786Y-87079639D01*
X170971465Y-87139289D01*
X170952835Y-87376000D01*
X170971465Y-87612711D01*
X170972619Y-87617518D01*
X170972620Y-87617524D01*
X170990533Y-87692136D01*
X171026895Y-87843594D01*
X171028788Y-87848165D01*
X171028789Y-87848167D01*
X171108011Y-88039426D01*
X171117760Y-88062963D01*
X171120346Y-88067183D01*
X171239241Y-88261202D01*
X171239245Y-88261208D01*
X171241824Y-88265416D01*
X171396031Y-88445969D01*
X171576584Y-88600176D01*
X171580792Y-88602755D01*
X171580798Y-88602759D01*
X171669886Y-88657352D01*
X171779037Y-88724240D01*
X171783607Y-88726133D01*
X171783611Y-88726135D01*
X171886750Y-88768856D01*
X171998406Y-88815105D01*
X172078609Y-88834360D01*
X172224476Y-88869380D01*
X172224482Y-88869381D01*
X172229289Y-88870535D01*
X172466000Y-88889165D01*
X172702711Y-88870535D01*
X172707518Y-88869381D01*
X172707524Y-88869380D01*
X172853391Y-88834360D01*
X172933594Y-88815105D01*
X173045250Y-88768856D01*
X173148389Y-88726135D01*
X173148393Y-88726133D01*
X173152963Y-88724240D01*
X173262114Y-88657352D01*
X173351202Y-88602759D01*
X173351208Y-88602755D01*
X173355416Y-88600176D01*
X173535969Y-88445969D01*
X173539177Y-88442213D01*
X173539182Y-88442208D01*
X173640189Y-88323944D01*
X173699639Y-88285134D01*
X173770634Y-88284628D01*
X173831811Y-88323944D01*
X173932818Y-88442208D01*
X173932823Y-88442213D01*
X173936031Y-88445969D01*
X174116584Y-88600176D01*
X174120792Y-88602755D01*
X174120798Y-88602759D01*
X174209886Y-88657352D01*
X174319037Y-88724240D01*
X174323607Y-88726133D01*
X174323611Y-88726135D01*
X174426750Y-88768856D01*
X174538406Y-88815105D01*
X174618609Y-88834360D01*
X174764476Y-88869380D01*
X174764482Y-88869381D01*
X174769289Y-88870535D01*
X175006000Y-88889165D01*
X175242711Y-88870535D01*
X175247518Y-88869381D01*
X175247524Y-88869380D01*
X175393391Y-88834360D01*
X175473594Y-88815105D01*
X175585250Y-88768856D01*
X175688389Y-88726135D01*
X175688393Y-88726133D01*
X175692963Y-88724240D01*
X175802114Y-88657352D01*
X175891202Y-88602759D01*
X175891208Y-88602755D01*
X175895416Y-88600176D01*
X176075969Y-88445969D01*
X176079177Y-88442213D01*
X176079182Y-88442208D01*
X176180189Y-88323944D01*
X176239639Y-88285134D01*
X176310634Y-88284628D01*
X176371811Y-88323944D01*
X176472818Y-88442208D01*
X176472823Y-88442213D01*
X176476031Y-88445969D01*
X176656584Y-88600176D01*
X176660792Y-88602755D01*
X176660798Y-88602759D01*
X176749886Y-88657352D01*
X176859037Y-88724240D01*
X176863607Y-88726133D01*
X176863611Y-88726135D01*
X176966750Y-88768856D01*
X177078406Y-88815105D01*
X177158609Y-88834360D01*
X177304476Y-88869380D01*
X177304482Y-88869381D01*
X177309289Y-88870535D01*
X177546000Y-88889165D01*
X177782711Y-88870535D01*
X177787518Y-88869381D01*
X177787524Y-88869380D01*
X177933391Y-88834360D01*
X178013594Y-88815105D01*
X178125250Y-88768856D01*
X178228389Y-88726135D01*
X178228393Y-88726133D01*
X178232963Y-88724240D01*
X178342114Y-88657352D01*
X178431202Y-88602759D01*
X178431208Y-88602755D01*
X178435416Y-88600176D01*
X178615969Y-88445969D01*
X178619177Y-88442213D01*
X178619182Y-88442208D01*
X178720189Y-88323944D01*
X178779639Y-88285134D01*
X178850634Y-88284628D01*
X178911811Y-88323944D01*
X179012818Y-88442208D01*
X179012823Y-88442213D01*
X179016031Y-88445969D01*
X179196584Y-88600176D01*
X179200792Y-88602755D01*
X179200798Y-88602759D01*
X179289886Y-88657352D01*
X179399037Y-88724240D01*
X179403607Y-88726133D01*
X179403611Y-88726135D01*
X179506750Y-88768856D01*
X179618406Y-88815105D01*
X179698609Y-88834360D01*
X179844476Y-88869380D01*
X179844482Y-88869381D01*
X179849289Y-88870535D01*
X180086000Y-88889165D01*
X180322711Y-88870535D01*
X180327518Y-88869381D01*
X180327524Y-88869380D01*
X180473391Y-88834360D01*
X180553594Y-88815105D01*
X180665250Y-88768856D01*
X180768389Y-88726135D01*
X180768393Y-88726133D01*
X180772963Y-88724240D01*
X180882114Y-88657352D01*
X180971202Y-88602759D01*
X180971208Y-88602755D01*
X180975416Y-88600176D01*
X181155969Y-88445969D01*
X181159177Y-88442213D01*
X181159182Y-88442208D01*
X181260189Y-88323944D01*
X181319639Y-88285134D01*
X181390634Y-88284628D01*
X181451811Y-88323944D01*
X181552818Y-88442208D01*
X181552823Y-88442213D01*
X181556031Y-88445969D01*
X181736584Y-88600176D01*
X181740792Y-88602755D01*
X181740798Y-88602759D01*
X181829886Y-88657352D01*
X181939037Y-88724240D01*
X181943607Y-88726133D01*
X181943611Y-88726135D01*
X182046750Y-88768856D01*
X182158406Y-88815105D01*
X182238609Y-88834360D01*
X182384476Y-88869380D01*
X182384482Y-88869381D01*
X182389289Y-88870535D01*
X182626000Y-88889165D01*
X182862711Y-88870535D01*
X182867518Y-88869381D01*
X182867524Y-88869380D01*
X183013391Y-88834360D01*
X183093594Y-88815105D01*
X183205250Y-88768856D01*
X183308389Y-88726135D01*
X183308393Y-88726133D01*
X183312963Y-88724240D01*
X183422114Y-88657352D01*
X183511202Y-88602759D01*
X183511208Y-88602755D01*
X183515416Y-88600176D01*
X183695969Y-88445969D01*
X183850176Y-88265416D01*
X183852755Y-88261208D01*
X183852759Y-88261202D01*
X183971654Y-88067183D01*
X183974240Y-88062963D01*
X183983990Y-88039426D01*
X184063211Y-87848167D01*
X184063212Y-87848165D01*
X184065105Y-87843594D01*
X184101467Y-87692136D01*
X184119380Y-87617524D01*
X184119381Y-87617518D01*
X184120535Y-87612711D01*
X184139165Y-87376000D01*
X184120535Y-87139289D01*
X184106215Y-87079639D01*
X184071033Y-86933098D01*
X184065105Y-86908406D01*
X184045753Y-86861685D01*
X183976135Y-86693611D01*
X183976133Y-86693607D01*
X183974240Y-86689037D01*
X183901847Y-86570903D01*
X183852759Y-86490798D01*
X183852755Y-86490792D01*
X183850176Y-86486584D01*
X183695969Y-86306031D01*
X183692213Y-86302823D01*
X183692208Y-86302818D01*
X183573944Y-86201811D01*
X183535134Y-86142361D01*
X183534628Y-86071366D01*
X183573944Y-86010189D01*
X183692208Y-85909182D01*
X183692213Y-85909177D01*
X183695969Y-85905969D01*
X183850176Y-85725416D01*
X183852755Y-85721208D01*
X183852759Y-85721202D01*
X183971654Y-85527183D01*
X183974240Y-85522963D01*
X184021020Y-85410027D01*
X184063211Y-85308167D01*
X184063212Y-85308165D01*
X184065105Y-85303594D01*
X184120535Y-85072711D01*
X184139165Y-84836000D01*
X184120535Y-84599289D01*
X184065105Y-84368406D01*
X183974240Y-84149037D01*
X183971654Y-84144817D01*
X183852759Y-83950798D01*
X183852755Y-83950792D01*
X183850176Y-83946584D01*
X183695969Y-83766031D01*
X183515416Y-83611824D01*
X183511208Y-83609245D01*
X183511202Y-83609241D01*
X183317183Y-83490346D01*
X183312963Y-83487760D01*
X183308393Y-83485867D01*
X183308389Y-83485865D01*
X183214339Y-83446909D01*
X183159058Y-83402361D01*
X183136637Y-83334998D01*
X183154195Y-83266206D01*
X183206157Y-83217828D01*
X183262557Y-83204500D01*
X198453497Y-83204500D01*
X198521618Y-83224502D01*
X198542592Y-83241405D01*
X203532595Y-88231408D01*
X203566621Y-88293720D01*
X203569500Y-88320503D01*
X203569500Y-89994512D01*
X203584617Y-90172675D01*
X203585957Y-90177839D01*
X203585958Y-90177843D01*
X203613669Y-90284606D01*
X203644668Y-90404040D01*
X203646860Y-90408906D01*
X203702345Y-90532077D01*
X203742843Y-90621980D01*
X203876334Y-90820262D01*
X203880013Y-90824119D01*
X203880015Y-90824121D01*
X203912099Y-90857753D01*
X204041326Y-90993218D01*
X204233100Y-91135902D01*
X204237851Y-91138318D01*
X204237855Y-91138320D01*
X204390718Y-91216039D01*
X204446172Y-91244233D01*
X204560312Y-91279674D01*
X204669349Y-91313532D01*
X204669355Y-91313533D01*
X204674452Y-91315116D01*
X204801883Y-91332006D01*
X204906127Y-91345823D01*
X204906131Y-91345823D01*
X204911411Y-91346523D01*
X204916740Y-91346323D01*
X204916741Y-91346323D01*
X205014509Y-91342652D01*
X205150274Y-91337555D01*
X205245865Y-91317498D01*
X205378984Y-91289567D01*
X205378987Y-91289566D01*
X205384211Y-91288470D01*
X205606533Y-91200671D01*
X205623594Y-91190318D01*
X205692208Y-91172079D01*
X205759790Y-91193830D01*
X205804885Y-91248666D01*
X205813174Y-91319177D01*
X205778055Y-91387132D01*
X205400592Y-91764595D01*
X205338280Y-91798621D01*
X205311497Y-91801500D01*
X198345973Y-91801500D01*
X198277852Y-91781498D01*
X198231359Y-91727842D01*
X198221255Y-91657568D01*
X198250749Y-91592988D01*
X198286141Y-91564612D01*
X198319961Y-91546364D01*
X198411589Y-91496924D01*
X198547914Y-91423367D01*
X198547918Y-91423364D01*
X198550964Y-91421721D01*
X198580949Y-91400997D01*
X198842443Y-91220269D01*
X198842449Y-91220265D01*
X198845284Y-91218305D01*
X199104673Y-90993218D01*
X199112887Y-90986090D01*
X199112888Y-90986089D01*
X199115504Y-90983819D01*
X199249019Y-90839384D01*
X199356014Y-90723637D01*
X199358362Y-90721097D01*
X199415954Y-90643124D01*
X199568860Y-90436106D01*
X199568865Y-90436098D01*
X199570923Y-90433312D01*
X199750621Y-90123940D01*
X199895285Y-89796717D01*
X200003167Y-89455596D01*
X200004129Y-89450763D01*
X200072291Y-89108089D01*
X200072966Y-89104696D01*
X200079696Y-89026997D01*
X200103538Y-88751712D01*
X200103538Y-88751706D01*
X200103837Y-88748256D01*
X200099678Y-88571753D01*
X200095490Y-88394045D01*
X200095489Y-88394038D01*
X200095408Y-88390581D01*
X200047780Y-88035991D01*
X200045800Y-88028019D01*
X199962367Y-87692136D01*
X199962365Y-87692129D01*
X199961530Y-87688768D01*
X199939931Y-87630220D01*
X199851364Y-87390150D01*
X199837698Y-87353108D01*
X199746822Y-87171238D01*
X199679326Y-87036156D01*
X199679322Y-87036149D01*
X199677780Y-87033063D01*
X199483709Y-86732499D01*
X199354419Y-86573691D01*
X199260012Y-86457729D01*
X199260005Y-86457722D01*
X199257827Y-86455046D01*
X199002863Y-86204056D01*
X199000016Y-86201811D01*
X198724620Y-85984707D01*
X198721897Y-85982560D01*
X198418322Y-85793234D01*
X198415196Y-85791733D01*
X198415187Y-85791728D01*
X198245759Y-85710370D01*
X198095804Y-85638363D01*
X198092535Y-85637215D01*
X197761499Y-85520963D01*
X197761491Y-85520961D01*
X197758240Y-85519819D01*
X197754878Y-85519040D01*
X197754872Y-85519038D01*
X197542887Y-85469903D01*
X197409705Y-85439033D01*
X197406288Y-85438629D01*
X197406279Y-85438627D01*
X197057115Y-85397301D01*
X197057114Y-85397301D01*
X197054411Y-85396981D01*
X197051696Y-85396896D01*
X197051687Y-85396895D01*
X197026731Y-85396111D01*
X197007286Y-85395500D01*
X196760183Y-85395500D01*
X196758464Y-85395595D01*
X196758449Y-85395595D01*
X196616311Y-85403418D01*
X196492766Y-85410217D01*
X196489354Y-85410785D01*
X196489344Y-85410786D01*
X196246045Y-85451283D01*
X196139847Y-85468959D01*
X195795505Y-85566073D01*
X195463900Y-85700387D01*
X195410547Y-85729175D01*
X195152086Y-85868633D01*
X195152082Y-85868636D01*
X195149036Y-85870279D01*
X195146188Y-85872248D01*
X195146187Y-85872248D01*
X194857557Y-86071731D01*
X194857551Y-86071735D01*
X194854716Y-86073695D01*
X194584496Y-86308181D01*
X194582148Y-86310721D01*
X194582146Y-86310723D01*
X194448735Y-86455046D01*
X194341638Y-86570903D01*
X194339579Y-86573691D01*
X194131140Y-86855894D01*
X194131135Y-86855902D01*
X194129077Y-86858688D01*
X194127338Y-86861682D01*
X194127336Y-86861685D01*
X194053057Y-86989565D01*
X193949379Y-87168060D01*
X193804715Y-87495283D01*
X193696833Y-87836404D01*
X193696158Y-87839797D01*
X193696156Y-87839805D01*
X193637683Y-88133768D01*
X193627034Y-88187304D01*
X193626736Y-88190745D01*
X193626735Y-88190752D01*
X193604631Y-88445969D01*
X193596163Y-88543744D01*
X193596555Y-88560383D01*
X193603377Y-88849842D01*
X193604592Y-88901419D01*
X193652220Y-89256009D01*
X193653056Y-89259373D01*
X193653056Y-89259375D01*
X193729764Y-89568183D01*
X193738470Y-89603232D01*
X193739670Y-89606485D01*
X193739671Y-89606488D01*
X193763545Y-89671200D01*
X193862302Y-89938892D01*
X193938657Y-90091702D01*
X194020674Y-90255844D01*
X194020678Y-90255851D01*
X194022220Y-90258937D01*
X194216291Y-90559501D01*
X194284371Y-90643124D01*
X194439988Y-90834271D01*
X194439995Y-90834278D01*
X194442173Y-90836954D01*
X194444637Y-90839380D01*
X194444641Y-90839384D01*
X194526541Y-90920007D01*
X194697137Y-91087944D01*
X194699856Y-91090088D01*
X194699860Y-91090091D01*
X194826998Y-91190318D01*
X194978103Y-91309440D01*
X194981049Y-91311277D01*
X194981050Y-91311278D01*
X194993716Y-91319177D01*
X195281678Y-91498766D01*
X195284804Y-91500267D01*
X195284813Y-91500272D01*
X195413190Y-91561917D01*
X195465939Y-91609435D01*
X195484625Y-91677929D01*
X195463313Y-91745651D01*
X195408771Y-91791101D01*
X195358648Y-91801500D01*
X167560503Y-91801500D01*
X167492382Y-91781498D01*
X167471408Y-91764595D01*
X166222834Y-90516021D01*
X166190660Y-90461128D01*
X166140875Y-90284606D01*
X166140874Y-90284604D01*
X166139307Y-90279047D01*
X166130824Y-90261844D01*
X166051756Y-90101510D01*
X166049201Y-90096329D01*
X166030796Y-90071681D01*
X165930758Y-89937715D01*
X165930758Y-89937714D01*
X165927305Y-89933091D01*
X165785079Y-89801618D01*
X165781943Y-89798719D01*
X165781940Y-89798717D01*
X165777703Y-89794800D01*
X165680543Y-89733497D01*
X165610288Y-89689169D01*
X165610283Y-89689167D01*
X165605404Y-89686088D01*
X165523201Y-89653292D01*
X165467343Y-89609473D01*
X165444042Y-89542408D01*
X165460698Y-89473393D01*
X165512022Y-89424339D01*
X165529387Y-89416951D01*
X165552799Y-89409004D01*
X165730551Y-89309458D01*
X165887186Y-89179186D01*
X166017458Y-89022551D01*
X166117004Y-88844799D01*
X166118860Y-88839332D01*
X166118862Y-88839327D01*
X166180634Y-88657352D01*
X166180635Y-88657347D01*
X166182490Y-88651883D01*
X166186246Y-88625979D01*
X166215817Y-88561434D01*
X166221847Y-88554966D01*
X171535408Y-83241405D01*
X171597720Y-83207379D01*
X171624503Y-83204500D01*
X171829443Y-83204500D01*
X171897564Y-83224502D01*
G37*
%TD.AperFunction*%
%TA.AperFunction,NonConductor*%
G36*
X208504018Y-80012000D02*
G01*
X208518852Y-80014310D01*
X208518855Y-80014310D01*
X208527724Y-80015691D01*
X208536627Y-80014527D01*
X208536629Y-80014527D01*
X208547078Y-80013161D01*
X208569594Y-80012249D01*
X208876322Y-80027318D01*
X208888618Y-80028528D01*
X209221520Y-80077910D01*
X209233642Y-80080320D01*
X209329572Y-80104350D01*
X209560101Y-80162095D01*
X209571933Y-80165684D01*
X209888803Y-80279061D01*
X209900227Y-80283793D01*
X210204456Y-80427683D01*
X210215361Y-80433512D01*
X210504024Y-80606530D01*
X210514305Y-80613400D01*
X210784613Y-80813874D01*
X210794171Y-80821718D01*
X211043531Y-81047725D01*
X211052275Y-81056469D01*
X211278282Y-81305829D01*
X211286126Y-81315387D01*
X211486600Y-81585695D01*
X211493470Y-81595976D01*
X211666488Y-81884639D01*
X211672317Y-81895544D01*
X211816207Y-82199773D01*
X211820939Y-82211197D01*
X211934316Y-82528067D01*
X211937905Y-82539899D01*
X212019679Y-82866355D01*
X212022091Y-82878483D01*
X212071471Y-83211377D01*
X212072682Y-83223676D01*
X212085564Y-83485865D01*
X212087390Y-83523034D01*
X212086042Y-83548598D01*
X212084309Y-83559724D01*
X212085474Y-83568630D01*
X212088436Y-83591283D01*
X212089500Y-83607621D01*
X212089500Y-93599500D01*
X212069498Y-93667621D01*
X212015842Y-93714114D01*
X211963500Y-93725500D01*
X206272940Y-93725500D01*
X206204819Y-93705498D01*
X206158326Y-93651842D01*
X206148222Y-93581568D01*
X206177716Y-93516988D01*
X206215738Y-93487233D01*
X206231646Y-93479128D01*
X206231653Y-93479124D01*
X206237530Y-93476129D01*
X206248467Y-93467273D01*
X206264763Y-93456073D01*
X206271224Y-93452343D01*
X206271228Y-93452340D01*
X206276944Y-93449040D01*
X206281850Y-93444623D01*
X206281855Y-93444619D01*
X206327769Y-93403278D01*
X206332784Y-93398994D01*
X206346177Y-93388148D01*
X206348741Y-93386072D01*
X206363256Y-93371557D01*
X206368041Y-93367016D01*
X206413957Y-93325673D01*
X206418866Y-93321253D01*
X206427140Y-93309865D01*
X206439981Y-93294832D01*
X208383289Y-91351524D01*
X208445601Y-91317498D01*
X208488939Y-91315711D01*
X208716127Y-91345823D01*
X208716131Y-91345823D01*
X208721411Y-91346523D01*
X208726740Y-91346323D01*
X208726741Y-91346323D01*
X208824509Y-91342652D01*
X208960274Y-91337555D01*
X209055865Y-91317498D01*
X209188984Y-91289567D01*
X209188987Y-91289566D01*
X209194211Y-91288470D01*
X209416533Y-91200671D01*
X209620883Y-91076668D01*
X209801419Y-90920007D01*
X209804802Y-90915881D01*
X209804806Y-90915877D01*
X209949593Y-90739295D01*
X209952978Y-90735167D01*
X209959542Y-90723637D01*
X210068584Y-90532077D01*
X210071227Y-90527434D01*
X210152784Y-90302747D01*
X210153734Y-90297495D01*
X210194580Y-90071615D01*
X210194581Y-90071607D01*
X210195318Y-90067531D01*
X210196500Y-90042468D01*
X210196500Y-88074488D01*
X210181383Y-87896325D01*
X210167697Y-87843594D01*
X210122673Y-87670125D01*
X210122671Y-87670120D01*
X210121332Y-87664960D01*
X210099964Y-87617524D01*
X210025347Y-87451881D01*
X210025346Y-87451878D01*
X210023157Y-87447020D01*
X209889666Y-87248738D01*
X209724674Y-87075782D01*
X209532900Y-86933098D01*
X209528149Y-86930682D01*
X209528145Y-86930680D01*
X209324586Y-86827186D01*
X209324585Y-86827186D01*
X209319828Y-86824767D01*
X209177362Y-86780530D01*
X209096651Y-86755468D01*
X209096645Y-86755467D01*
X209091548Y-86753884D01*
X208952151Y-86735408D01*
X208859873Y-86723177D01*
X208859869Y-86723177D01*
X208854589Y-86722477D01*
X208849260Y-86722677D01*
X208849259Y-86722677D01*
X208751491Y-86726348D01*
X208615726Y-86731445D01*
X208596839Y-86735408D01*
X208387016Y-86779433D01*
X208387013Y-86779434D01*
X208381789Y-86780530D01*
X208159467Y-86868329D01*
X207955117Y-86992332D01*
X207951087Y-86995829D01*
X207785764Y-87139289D01*
X207774581Y-87148993D01*
X207771198Y-87153119D01*
X207771194Y-87153123D01*
X207692795Y-87248738D01*
X207623022Y-87333833D01*
X207620383Y-87338469D01*
X207620381Y-87338472D01*
X207531182Y-87495173D01*
X207504773Y-87541566D01*
X207423216Y-87766253D01*
X207422267Y-87771502D01*
X207422266Y-87771505D01*
X207381420Y-87997385D01*
X207381419Y-87997393D01*
X207380682Y-88001469D01*
X207379500Y-88026532D01*
X207379500Y-89733497D01*
X207359498Y-89801618D01*
X207342595Y-89822592D01*
X206424803Y-90740384D01*
X206362491Y-90774410D01*
X206291676Y-90769345D01*
X206234840Y-90726798D01*
X206210029Y-90660278D01*
X206226206Y-90588957D01*
X206258584Y-90532077D01*
X206261227Y-90527434D01*
X206342784Y-90302747D01*
X206343734Y-90297495D01*
X206384580Y-90071615D01*
X206384581Y-90071607D01*
X206385318Y-90067531D01*
X206386500Y-90042468D01*
X206386500Y-88074488D01*
X206371383Y-87896325D01*
X206357697Y-87843594D01*
X206312673Y-87670125D01*
X206312671Y-87670120D01*
X206311332Y-87664960D01*
X206289964Y-87617524D01*
X206215347Y-87451881D01*
X206215346Y-87451878D01*
X206213157Y-87447020D01*
X206079666Y-87248738D01*
X205914674Y-87075782D01*
X205722900Y-86933098D01*
X205718149Y-86930682D01*
X205718145Y-86930680D01*
X205514586Y-86827186D01*
X205514585Y-86827186D01*
X205509828Y-86824767D01*
X205367362Y-86780530D01*
X205286651Y-86755468D01*
X205286645Y-86755467D01*
X205281548Y-86753884D01*
X205142151Y-86735408D01*
X205049873Y-86723177D01*
X205049869Y-86723177D01*
X205044589Y-86722477D01*
X205039260Y-86722677D01*
X205039259Y-86722677D01*
X204941491Y-86726348D01*
X204805726Y-86731445D01*
X204800508Y-86732540D01*
X204800507Y-86732540D01*
X204704290Y-86752728D01*
X204633513Y-86747140D01*
X204589321Y-86718508D01*
X199581981Y-81711168D01*
X199569140Y-81696135D01*
X199564746Y-81690087D01*
X199564745Y-81690086D01*
X199560866Y-81684747D01*
X199510041Y-81638984D01*
X199505256Y-81634443D01*
X199490741Y-81619928D01*
X199483282Y-81613888D01*
X199474784Y-81607006D01*
X199469769Y-81602722D01*
X199423855Y-81561381D01*
X199423850Y-81561377D01*
X199418944Y-81556960D01*
X199413228Y-81553660D01*
X199413224Y-81553657D01*
X199406763Y-81549927D01*
X199390466Y-81538727D01*
X199384660Y-81534025D01*
X199384658Y-81534024D01*
X199379530Y-81529871D01*
X199318573Y-81498812D01*
X199312782Y-81495667D01*
X199259279Y-81464777D01*
X199259278Y-81464776D01*
X199253556Y-81461473D01*
X199247274Y-81459432D01*
X199247272Y-81459431D01*
X199240174Y-81457125D01*
X199221907Y-81449559D01*
X199221903Y-81449557D01*
X199209370Y-81443171D01*
X199143291Y-81425465D01*
X199136997Y-81423600D01*
X199071928Y-81402458D01*
X199065363Y-81401768D01*
X199065354Y-81401766D01*
X199057925Y-81400985D01*
X199038491Y-81397383D01*
X199031286Y-81395453D01*
X199031284Y-81395453D01*
X199024903Y-81393743D01*
X199018312Y-81393398D01*
X199018308Y-81393397D01*
X198956616Y-81390164D01*
X198950042Y-81389647D01*
X198932884Y-81387844D01*
X198932882Y-81387844D01*
X198929610Y-81387500D01*
X198909074Y-81387500D01*
X198902480Y-81387327D01*
X198840782Y-81384093D01*
X198840777Y-81384093D01*
X198834190Y-81383748D01*
X198820292Y-81385949D01*
X198800583Y-81387500D01*
X171277417Y-81387500D01*
X171257708Y-81385949D01*
X171243810Y-81383748D01*
X171237223Y-81384093D01*
X171237218Y-81384093D01*
X171175520Y-81387327D01*
X171168926Y-81387500D01*
X171148390Y-81387500D01*
X171145118Y-81387844D01*
X171145116Y-81387844D01*
X171127958Y-81389647D01*
X171121384Y-81390164D01*
X171059696Y-81393397D01*
X171059694Y-81393397D01*
X171053097Y-81393743D01*
X171039504Y-81397385D01*
X171020075Y-81400986D01*
X171006072Y-81402458D01*
X170941025Y-81423593D01*
X170934712Y-81425463D01*
X170914074Y-81430993D01*
X170875003Y-81441462D01*
X170875000Y-81441463D01*
X170868630Y-81443170D01*
X170856085Y-81449562D01*
X170837826Y-81457125D01*
X170824444Y-81461473D01*
X170818723Y-81464776D01*
X170765223Y-81495664D01*
X170759426Y-81498812D01*
X170704351Y-81526874D01*
X170704348Y-81526876D01*
X170698470Y-81529871D01*
X170693342Y-81534024D01*
X170693340Y-81534025D01*
X170687534Y-81538727D01*
X170671237Y-81549927D01*
X170664776Y-81553657D01*
X170664772Y-81553660D01*
X170659056Y-81556960D01*
X170654150Y-81561377D01*
X170654145Y-81561381D01*
X170608231Y-81602722D01*
X170603216Y-81607006D01*
X170594718Y-81613888D01*
X170587259Y-81619928D01*
X170572744Y-81634443D01*
X170567959Y-81638984D01*
X170517134Y-81684747D01*
X170513255Y-81690086D01*
X170513254Y-81690087D01*
X170508860Y-81696135D01*
X170496019Y-81711168D01*
X164935124Y-87272063D01*
X164867367Y-87307148D01*
X164811870Y-87316684D01*
X164620734Y-87387198D01*
X164615773Y-87390150D01*
X164615772Y-87390150D01*
X164520183Y-87447020D01*
X164445649Y-87491363D01*
X164292478Y-87625690D01*
X164288911Y-87630215D01*
X164288906Y-87630220D01*
X164257448Y-87670125D01*
X164166351Y-87785681D01*
X164071492Y-87965978D01*
X164011078Y-88160543D01*
X163987132Y-88362859D01*
X164000457Y-88566151D01*
X164050605Y-88763610D01*
X164135898Y-88948624D01*
X164253479Y-89114997D01*
X164399410Y-89257157D01*
X164404206Y-89260362D01*
X164404209Y-89260364D01*
X164472149Y-89305760D01*
X164568803Y-89370342D01*
X164574106Y-89372620D01*
X164574109Y-89372622D01*
X164681875Y-89418922D01*
X164736568Y-89464191D01*
X164758105Y-89531842D01*
X164739648Y-89600397D01*
X164687057Y-89648091D01*
X164675748Y-89652902D01*
X164639302Y-89666348D01*
X164620734Y-89673198D01*
X164445649Y-89777363D01*
X164292478Y-89911690D01*
X164288911Y-89916215D01*
X164288906Y-89916220D01*
X164229283Y-89991852D01*
X164166351Y-90071681D01*
X164071492Y-90251978D01*
X164011078Y-90446543D01*
X163987132Y-90648859D01*
X164000457Y-90852151D01*
X164050605Y-91049610D01*
X164135898Y-91234624D01*
X164253479Y-91400997D01*
X164399410Y-91543157D01*
X164404206Y-91546362D01*
X164404209Y-91546364D01*
X164469464Y-91589966D01*
X164568803Y-91656342D01*
X164574106Y-91658620D01*
X164574109Y-91658622D01*
X164732958Y-91726869D01*
X164755987Y-91736763D01*
X164850286Y-91758100D01*
X164872920Y-91763222D01*
X164934207Y-91797020D01*
X166432019Y-93294832D01*
X166444860Y-93309865D01*
X166453134Y-93321253D01*
X166458043Y-93325673D01*
X166503959Y-93367016D01*
X166508744Y-93371557D01*
X166523259Y-93386072D01*
X166525823Y-93388148D01*
X166539216Y-93398994D01*
X166544231Y-93403278D01*
X166590145Y-93444619D01*
X166590150Y-93444623D01*
X166595056Y-93449040D01*
X166600772Y-93452340D01*
X166600776Y-93452343D01*
X166607237Y-93456073D01*
X166623533Y-93467273D01*
X166634470Y-93476129D01*
X166695421Y-93507185D01*
X166701215Y-93510331D01*
X166760444Y-93544527D01*
X166766726Y-93546568D01*
X166766728Y-93546569D01*
X166773826Y-93548875D01*
X166792092Y-93556440D01*
X166804630Y-93562829D01*
X166870701Y-93580533D01*
X166877003Y-93582400D01*
X166942072Y-93603542D01*
X166948637Y-93604232D01*
X166948646Y-93604234D01*
X166956075Y-93605015D01*
X166975509Y-93608617D01*
X166982714Y-93610547D01*
X166982716Y-93610547D01*
X166989097Y-93612257D01*
X166995688Y-93612602D01*
X166995692Y-93612603D01*
X167057384Y-93615836D01*
X167063958Y-93616353D01*
X167081116Y-93618156D01*
X167081118Y-93618156D01*
X167084390Y-93618500D01*
X167104926Y-93618500D01*
X167111520Y-93618673D01*
X167173218Y-93621907D01*
X167173223Y-93621907D01*
X167179810Y-93622252D01*
X167193708Y-93620051D01*
X167213417Y-93618500D01*
X202286371Y-93618500D01*
X202354492Y-93638502D01*
X202400985Y-93692158D01*
X202411089Y-93762432D01*
X202381595Y-93827012D01*
X202367630Y-93839860D01*
X202368079Y-93840384D01*
X202364376Y-93843555D01*
X202360448Y-93846425D01*
X202349473Y-93857400D01*
X202342626Y-93863758D01*
X202304873Y-93896287D01*
X202299989Y-93903822D01*
X202294542Y-93910066D01*
X202284942Y-93921931D01*
X197692278Y-98514595D01*
X197629966Y-98548621D01*
X197603183Y-98551500D01*
X141232817Y-98551500D01*
X141164696Y-98531498D01*
X141143722Y-98514595D01*
X136553823Y-93924696D01*
X136546200Y-93915156D01*
X136545832Y-93915470D01*
X136540014Y-93908634D01*
X136535224Y-93901042D01*
X136494875Y-93865407D01*
X136489188Y-93860061D01*
X136477745Y-93848618D01*
X136469370Y-93842341D01*
X136461541Y-93835967D01*
X136426049Y-93804622D01*
X136417926Y-93800808D01*
X136415438Y-93799174D01*
X136400477Y-93790186D01*
X136397892Y-93788771D01*
X136390705Y-93783384D01*
X136346357Y-93766759D01*
X136337040Y-93762832D01*
X136336572Y-93762612D01*
X136294200Y-93742719D01*
X136285331Y-93741338D01*
X136282498Y-93740472D01*
X136265611Y-93736042D01*
X136262726Y-93735408D01*
X136254316Y-93732255D01*
X136225158Y-93730088D01*
X136207094Y-93728746D01*
X136197048Y-93727592D01*
X136188425Y-93726249D01*
X136188422Y-93726249D01*
X136183614Y-93725500D01*
X136168094Y-93725500D01*
X136158757Y-93725154D01*
X136141854Y-93723898D01*
X136109059Y-93721461D01*
X136100280Y-93723335D01*
X136092022Y-93723898D01*
X136076839Y-93725500D01*
X130682500Y-93725500D01*
X130614379Y-93705498D01*
X130567886Y-93651842D01*
X130556500Y-93599500D01*
X130556500Y-88543744D01*
X131620163Y-88543744D01*
X131620555Y-88560383D01*
X131627377Y-88849842D01*
X131628592Y-88901419D01*
X131676220Y-89256009D01*
X131677056Y-89259373D01*
X131677056Y-89259375D01*
X131753764Y-89568183D01*
X131762470Y-89603232D01*
X131763670Y-89606485D01*
X131763671Y-89606488D01*
X131787545Y-89671200D01*
X131886302Y-89938892D01*
X131962657Y-90091702D01*
X132044674Y-90255844D01*
X132044678Y-90255851D01*
X132046220Y-90258937D01*
X132240291Y-90559501D01*
X132308371Y-90643124D01*
X132463988Y-90834271D01*
X132463995Y-90834278D01*
X132466173Y-90836954D01*
X132468637Y-90839380D01*
X132468641Y-90839384D01*
X132550541Y-90920007D01*
X132721137Y-91087944D01*
X132723856Y-91090088D01*
X132723860Y-91090091D01*
X132850998Y-91190318D01*
X133002103Y-91309440D01*
X133005049Y-91311277D01*
X133005050Y-91311278D01*
X133017716Y-91319177D01*
X133305678Y-91498766D01*
X133308804Y-91500267D01*
X133308813Y-91500272D01*
X133442802Y-91564612D01*
X133628196Y-91653637D01*
X133631465Y-91654785D01*
X133962501Y-91771037D01*
X133962509Y-91771039D01*
X133965760Y-91772181D01*
X133969122Y-91772960D01*
X133969128Y-91772962D01*
X134072923Y-91797020D01*
X134314295Y-91852967D01*
X134317712Y-91853371D01*
X134317721Y-91853373D01*
X134666885Y-91894699D01*
X134669589Y-91895019D01*
X134672304Y-91895104D01*
X134672313Y-91895105D01*
X134697269Y-91895889D01*
X134716714Y-91896500D01*
X134963817Y-91896500D01*
X134965536Y-91896405D01*
X134965551Y-91896405D01*
X135107689Y-91888582D01*
X135231234Y-91881783D01*
X135234646Y-91881215D01*
X135234656Y-91881214D01*
X135477955Y-91840717D01*
X135584153Y-91823041D01*
X135928495Y-91725927D01*
X136260100Y-91591613D01*
X136435589Y-91496924D01*
X136571914Y-91423367D01*
X136571918Y-91423364D01*
X136574964Y-91421721D01*
X136604949Y-91400997D01*
X136866443Y-91220269D01*
X136866449Y-91220265D01*
X136869284Y-91218305D01*
X137128673Y-90993218D01*
X137136887Y-90986090D01*
X137136888Y-90986089D01*
X137139504Y-90983819D01*
X137273019Y-90839384D01*
X137380014Y-90723637D01*
X137382362Y-90721097D01*
X137439954Y-90643124D01*
X137592860Y-90436106D01*
X137592865Y-90436098D01*
X137594923Y-90433312D01*
X137774621Y-90123940D01*
X137919285Y-89796717D01*
X138027167Y-89455596D01*
X138028129Y-89450763D01*
X138096291Y-89108089D01*
X138096966Y-89104696D01*
X138103696Y-89026997D01*
X138127538Y-88751712D01*
X138127538Y-88751706D01*
X138127837Y-88748256D01*
X138123678Y-88571753D01*
X138119490Y-88394045D01*
X138119489Y-88394038D01*
X138119408Y-88390581D01*
X138071780Y-88035991D01*
X138069800Y-88028019D01*
X137986367Y-87692136D01*
X137986365Y-87692129D01*
X137985530Y-87688768D01*
X137963931Y-87630220D01*
X137875364Y-87390150D01*
X137861698Y-87353108D01*
X137770822Y-87171238D01*
X137703326Y-87036156D01*
X137703322Y-87036149D01*
X137701780Y-87033063D01*
X137507709Y-86732499D01*
X137378419Y-86573691D01*
X137284012Y-86457729D01*
X137284005Y-86457722D01*
X137281827Y-86455046D01*
X137026863Y-86204056D01*
X137024016Y-86201811D01*
X136748620Y-85984707D01*
X136745897Y-85982560D01*
X136442322Y-85793234D01*
X136439196Y-85791733D01*
X136439187Y-85791728D01*
X136269759Y-85710370D01*
X136119804Y-85638363D01*
X136116535Y-85637215D01*
X135785499Y-85520963D01*
X135785491Y-85520961D01*
X135782240Y-85519819D01*
X135778878Y-85519040D01*
X135778872Y-85519038D01*
X135566887Y-85469903D01*
X135433705Y-85439033D01*
X135430288Y-85438629D01*
X135430279Y-85438627D01*
X135081115Y-85397301D01*
X135081114Y-85397301D01*
X135078411Y-85396981D01*
X135075696Y-85396896D01*
X135075687Y-85396895D01*
X135050731Y-85396111D01*
X135031286Y-85395500D01*
X134784183Y-85395500D01*
X134782464Y-85395595D01*
X134782449Y-85395595D01*
X134640311Y-85403418D01*
X134516766Y-85410217D01*
X134513354Y-85410785D01*
X134513344Y-85410786D01*
X134270045Y-85451283D01*
X134163847Y-85468959D01*
X133819505Y-85566073D01*
X133487900Y-85700387D01*
X133434547Y-85729175D01*
X133176086Y-85868633D01*
X133176082Y-85868636D01*
X133173036Y-85870279D01*
X133170188Y-85872248D01*
X133170187Y-85872248D01*
X132881557Y-86071731D01*
X132881551Y-86071735D01*
X132878716Y-86073695D01*
X132608496Y-86308181D01*
X132606148Y-86310721D01*
X132606146Y-86310723D01*
X132472735Y-86455046D01*
X132365638Y-86570903D01*
X132363579Y-86573691D01*
X132155140Y-86855894D01*
X132155135Y-86855902D01*
X132153077Y-86858688D01*
X132151338Y-86861682D01*
X132151336Y-86861685D01*
X132077057Y-86989565D01*
X131973379Y-87168060D01*
X131828715Y-87495283D01*
X131720833Y-87836404D01*
X131720158Y-87839797D01*
X131720156Y-87839805D01*
X131661683Y-88133768D01*
X131651034Y-88187304D01*
X131650736Y-88190745D01*
X131650735Y-88190752D01*
X131628631Y-88445969D01*
X131620163Y-88543744D01*
X130556500Y-88543744D01*
X130556500Y-83619250D01*
X130558246Y-83598345D01*
X130560770Y-83583344D01*
X130560770Y-83583341D01*
X130561576Y-83578552D01*
X130561729Y-83566000D01*
X130561040Y-83561185D01*
X130561039Y-83561177D01*
X130559550Y-83550781D01*
X130558429Y-83526735D01*
X130567189Y-83348432D01*
X130573318Y-83223676D01*
X130574529Y-83211377D01*
X130623909Y-82878483D01*
X130626321Y-82866355D01*
X130708095Y-82539899D01*
X130711684Y-82528067D01*
X130825061Y-82211197D01*
X130829793Y-82199773D01*
X130973683Y-81895544D01*
X130979512Y-81884639D01*
X131152530Y-81595976D01*
X131159400Y-81585695D01*
X131359874Y-81315387D01*
X131367718Y-81305829D01*
X131593725Y-81056469D01*
X131602469Y-81047725D01*
X131851829Y-80821718D01*
X131861387Y-80813874D01*
X132131695Y-80613400D01*
X132141976Y-80606530D01*
X132430639Y-80433512D01*
X132441544Y-80427683D01*
X132745773Y-80283793D01*
X132757197Y-80279061D01*
X133074067Y-80165684D01*
X133085899Y-80162095D01*
X133316428Y-80104350D01*
X133412358Y-80080320D01*
X133424480Y-80077910D01*
X133757382Y-80028528D01*
X133769676Y-80027318D01*
X134069038Y-80012610D01*
X134094598Y-80013958D01*
X134105724Y-80015691D01*
X134137286Y-80011564D01*
X134153621Y-80010500D01*
X208484633Y-80010500D01*
X208504018Y-80012000D01*
G37*
%TD.AperFunction*%
M02*
